<?xml version="1.0" standalone="no"?>
<!DOCTYPE svg PUBLIC "-//W3C//DTD SVG 20010904//EN"
 "http://www.w3.org/TR/2001/REC-SVG-20010904/DTD/svg10.dtd">
<svg version="1.0" xmlns="http://www.w3.org/2000/svg"
 width="600.000000pt" height="600.000000pt" viewBox="0 0 600.000000 600.000000"
 preserveAspectRatio="xMidYMid meet">
<metadata>
Created by potrace 1.11, written by Peter Selinger 2001-2013
</metadata>
<g transform="translate(0.000000,600.000000) scale(0.100000,-0.100000)"
fill="#000000" stroke="none">
<path d="M1474 5082 c7 -11 -3 -13 -52 -10 -34 2 -58 -1 -55 -6 4 -5 -7 -6
-25 -3 -19 4 -32 2 -32 -3 0 -6 -11 -10 -25 -10 -14 0 -57 -11 -96 -25 -40
-13 -76 -22 -82 -18 -5 3 -7 1 -4 -5 4 -5 -12 -21 -35 -35 -60 -36 -115 -95
-147 -160 -16 -31 -32 -53 -36 -49 -5 4 -5 1 -1 -6 4 -7 3 -27 -3 -45 -6 -17
-13 -57 -17 -87 -3 -30 -9 -75 -13 -100 -6 -48 -7 -188 -2 -382 2 -64 1 -120
-3 -126 -3 -5 -2 -12 2 -16 4 -4 8 -44 9 -88 0 -43 4 -82 7 -85 3 -4 1 -12 -5
-20 -6 -7 -7 -13 -2 -13 5 0 10 -7 10 -15 0 -8 -5 -15 -11 -15 -7 0 -7 -3 -1
-8 16 -11 14 -56 -4 -70 -9 -8 -10 -11 -3 -7 9 5 12 -6 11 -44 -1 -30 -6 -48
-12 -44 -6 4 -7 1 -2 -6 10 -18 -15 -132 -28 -124 -6 3 -7 1 -3 -5 11 -17 -30
-88 -67 -116 -40 -30 -102 -58 -125 -55 -10 1 -24 -1 -32 -4 -8 -3 -31 -8 -50
-9 l-35 -3 0 -80 c0 -44 -4 -85 -8 -92 -4 -6 -3 -14 3 -18 5 -3 10 -11 10 -16
0 -6 -5 -7 -12 -3 -7 4 -8 3 -4 -5 11 -17 15 -122 5 -115 -5 3 -6 -3 -2 -12 3
-9 7 -28 8 -41 0 -13 4 -22 9 -21 4 2 14 -8 23 -22 8 -14 12 -17 9 -7 -4 14
-1 17 17 15 12 -2 27 -6 32 -9 6 -3 20 -4 32 -3 12 0 20 -2 17 -7 -2 -4 -12
-5 -22 -2 -15 6 -15 5 -3 -10 13 -16 15 -16 32 -2 16 15 18 15 24 -4 3 -12 11
-19 16 -15 5 3 6 11 3 17 -4 7 -3 8 2 4 5 -5 9 -14 9 -19 0 -6 6 -13 14 -16 9
-3 11 0 6 8 -6 9 -3 9 14 1 25 -14 28 -23 4 -14 -16 6 -16 5 -4 -10 7 -9 16
-15 20 -13 13 8 28 -9 56 -63 21 -43 24 -55 13 -62 -8 -6 -9 -9 -1 -9 11 0 23
-39 29 -95 7 -77 8 -151 1 -162 -5 -7 -4 -13 0 -13 5 0 8 -15 6 -32 -19 -239
-21 -854 -2 -842 12 7 17 -60 6 -74 -7 -9 -6 -11 4 -7 19 7 51 -79 35 -95 -8
-8 -6 -9 7 -5 10 4 17 2 17 -4 0 -17 3 -23 32 -52 16 -15 28 -33 28 -41 0 -10
-3 -9 -11 2 -8 12 -10 12 -7 1 2 -8 12 -15 21 -17 11 -1 14 2 10 9 -6 11 12
-4 67 -55 10 -9 21 -13 25 -10 3 4 3 -1 -1 -11 -5 -14 -9 -15 -20 -6 -8 7 -12
14 -9 17 11 11 -30 30 -46 21 -9 -4 -20 -5 -24 -1 -5 4 -5 1 -1 -6 5 -8 13 -9
25 -2 14 7 22 3 38 -18 11 -15 19 -37 18 -49 -1 -12 2 -20 7 -17 5 4 7 12 4
19 -5 13 23 45 40 45 5 0 3 -4 -4 -9 -7 -4 -15 -21 -17 -37 -2 -26 -2 -27 11
-10 7 11 11 23 7 29 -3 6 -1 7 5 3 7 -4 12 -2 12 6 0 22 30 -29 32 -55 2 -21
5 -24 20 -16 14 7 20 6 24 -6 6 -15 25 -22 23 -7 -1 4 0 10 1 15 1 4 3 12 4
19 0 6 8 13 16 15 9 3 11 1 5 -4 -15 -12 -15 -44 -1 -58 7 -7 25 -12 42 -11
16 0 29 -4 29 -11 0 -6 4 -15 9 -20 6 -5 6 -2 1 6 -6 11 -4 13 11 8 18 -7 18
-6 -1 9 -11 8 -19 20 -17 25 1 6 -3 7 -10 3 -7 -4 -4 2 6 14 21 25 36 31 16 7
-8 -10 -9 -15 -2 -15 6 0 16 8 21 17 6 10 11 13 11 6 0 -7 -6 -18 -13 -24 -11
-11 -10 -16 4 -30 17 -17 73 -24 63 -8 -3 5 2 9 11 9 10 0 13 -5 9 -12 -5 -9
-3 -9 9 1 15 12 18 10 26 -10 5 -13 6 -28 3 -33 -3 -5 0 -6 6 -3 5 4 8 17 5
28 -6 21 -5 21 23 4 l29 -17 -25 21 c-14 11 -19 21 -12 21 6 0 20 -8 30 -18
15 -15 20 -16 31 -5 6 7 9 19 5 26 -6 9 -5 9 8 0 8 -7 18 -9 23 -5 4 4 5 -4 1
-18 -3 -14 -3 -19 0 -12 3 6 14 12 24 12 10 0 21 -6 23 -12 4 -10 6 -10 6 0 1
8 -8 16 -19 19 -11 3 -18 9 -15 13 3 5 -3 7 -12 6 -10 -2 -27 3 -39 11 -20 13
-59 8 -50 -6 3 -4 -4 -7 -14 -7 -10 0 -16 4 -14 8 3 4 1 8 -5 8 -5 0 -11 -3
-14 -7 -2 -5 -2 -2 0 6 2 8 -2 11 -12 7 -8 -3 -15 -1 -15 4 0 13 33 13 47 -1
8 -8 17 -7 32 3 17 11 25 11 42 -1 20 -12 21 -11 15 6 -4 13 -1 11 13 -6 18
-23 19 -23 29 -5 7 11 12 13 12 6 0 -7 5 -10 12 -6 7 4 8 3 4 -5 -4 -6 -13 -9
-19 -5 -7 3 -3 -2 8 -10 11 -9 25 -14 32 -12 8 3 11 -4 8 -25 -2 -16 0 -27 5
-24 5 3 6 13 3 23 -6 15 -5 16 13 2 15 -11 16 -11 7 0 -17 19 -16 30 3 30 9 0
12 -5 8 -12 -4 -7 -3 -8 5 -4 6 4 8 13 5 19 -5 9 -3 9 6 0 10 -9 10 -16 2 -26
-9 -11 -8 -14 3 -14 8 0 12 3 10 7 -7 11 26 51 37 44 6 -4 5 -10 -3 -15 -10
-6 -10 -9 -2 -9 16 0 26 17 14 25 -6 3 -8 12 -5 20 4 8 10 12 15 9 5 -3 7 -9
5 -13 -7 -10 32 -7 41 4 5 4 3 5 -3 2 -7 -4 -23 2 -37 13 -16 13 -32 18 -44
13 -10 -3 -15 -3 -11 2 4 4 2 15 -4 24 -10 13 -10 14 2 4 8 -7 21 -13 29 -12
11 0 12 2 3 6 -7 2 -17 14 -23 25 -7 13 -7 18 -1 14 6 -3 13 0 16 6 3 7 3 3 0
-9 -3 -13 -1 -23 4 -23 15 0 20 23 10 43 -7 15 -12 16 -24 6 -8 -6 -14 -7 -14
-3 0 5 9 15 20 22 11 7 20 17 20 24 0 6 -9 3 -20 -7 -18 -17 -20 -17 -14 -2 3
9 10 17 16 17 5 0 6 5 2 12 -4 7 -3 8 5 4 6 -4 14 -1 17 8 3 8 12 12 20 9 8
-3 14 0 14 7 0 6 -5 8 -10 5 -6 -3 -10 -1 -10 4 0 6 5 11 11 11 6 0 8 9 4 21
-6 16 -4 20 6 13 11 -6 12 -5 2 8 -7 8 -9 19 -5 24 4 4 -1 2 -10 -5 -10 -7
-15 -18 -11 -24 4 -6 1 -7 -8 -3 -8 4 -7 1 3 -5 14 -11 15 -15 1 -36 -16 -24
-33 -31 -33 -12 0 5 5 7 10 4 6 -3 10 1 10 10 0 9 -4 14 -9 11 -5 -3 -12 1
-15 9 -5 13 -2 14 17 4 17 -9 20 -9 10 1 -6 7 -9 20 -6 29 5 13 3 14 -8 4 -7
-7 -18 -13 -23 -13 -6 0 -4 5 4 10 11 7 11 10 2 10 -7 0 -11 4 -8 9 4 5 0 12
-6 14 -10 4 -10 6 0 6 8 1 10 6 5 14 -10 16 -12 58 -2 52 4 -3 2 6 -4 19 -7
14 -14 21 -17 18 -11 -15 -33 -12 -46 5 -10 13 -13 14 -9 3 4 -11 -1 -16 -14
-16 -11 0 -17 5 -13 11 3 6 0 5 -9 -1 -8 -6 -21 -10 -29 -9 -8 1 -35 5 -60 8
-64 8 -100 18 -100 28 0 5 -7 6 -15 3 -8 -4 -15 -1 -15 6 0 6 4 9 8 6 4 -2 14
0 22 5 12 7 11 8 -5 6 -11 -1 -27 -7 -35 -11 -8 -5 -12 -6 -8 -1 4 4 -6 21
-22 37 -16 15 -25 28 -20 28 6 0 10 7 10 16 0 9 -5 12 -12 8 -10 -6 -10 -4 0
7 18 20 15 33 -5 18 -17 -12 -17 -12 -1 6 15 16 15 21 2 46 -12 25 -12 28 0
23 10 -4 13 0 11 13 -2 10 -4 20 -4 23 -1 3 -5 0 -9 -7 -5 -8 -13 -9 -22 -3
-13 8 -13 10 2 10 9 0 18 5 20 12 5 15 38 20 35 5 -1 -7 -6 -15 -12 -19 -6 -5
-5 -8 3 -8 6 0 12 -7 12 -15 0 -8 -4 -15 -9 -15 -10 0 -9 -50 2 -67 4 -6 1
-14 -5 -16 -10 -4 -10 -6 0 -6 7 -1 10 -6 6 -13 -4 -7 -3 -8 4 -4 7 4 12 2 12
-3 0 -6 -7 -11 -17 -11 -18 0 -8 -15 10 -15 7 -1 11 -6 10 -13 -2 -7 2 -12 8
-12 6 0 9 6 6 14 -3 7 0 19 6 26 9 10 9 11 -2 5 -9 -5 -12 -3 -9 6 3 8 10 14
16 14 5 0 13 3 17 7 9 8 -16 5 -32 -5 -6 -4 -14 -3 -18 3 -3 5 -1 10 6 10 7 0
5 6 -6 14 -18 13 -18 13 1 24 10 6 15 12 10 12 -5 0 -3 8 5 18 8 10 4 7 -8 -6
-27 -27 -29 -22 -8 18 9 17 12 30 7 30 -5 0 -9 7 -9 15 0 8 5 15 10 15 6 0 7
3 4 7 -4 3 3 18 15 32 l23 26 -27 -24 c-16 -14 -31 -21 -35 -18 -3 4 2 14 13
23 16 13 17 15 2 10 -10 -3 -18 0 -18 6 0 9 -3 9 -11 1 -7 -7 -8 -17 -1 -29 8
-16 6 -19 -13 -20 -17 -1 -23 3 -22 16 1 10 5 16 9 14 4 -3 8 0 8 5 0 6 -4 11
-10 11 -5 0 -10 5 -10 11 0 8 4 9 13 0 16 -12 27 -5 27 18 0 14 -2 14 -10 1
-7 -11 -10 -11 -10 -2 0 7 -4 11 -8 8 -4 -2 -8 4 -8 14 0 10 3 17 7 14 4 -2
10 3 13 12 9 24 8 26 -16 13 -19 -9 -18 -6 5 13 31 26 30 48 -4 106 l-22 37
24 -25 c14 -14 24 -27 23 -30 -2 -3 1 -12 5 -19 6 -9 11 -10 15 -2 4 6 2 11
-4 11 -6 0 -9 4 -5 10 3 5 13 7 23 4 14 -5 14 -4 2 4 -8 6 -18 8 -22 6 -4 -3
-8 5 -8 18 0 18 -2 20 -10 8 -6 -9 -10 -10 -10 -3 0 6 5 15 10 18 6 3 10 11
10 17 0 7 -5 6 -14 -1 -11 -9 -16 -9 -22 0 -4 7 -3 9 3 6 6 -4 16 0 23 8 10
12 8 17 -11 25 -21 9 -21 10 -3 7 12 -3 29 0 38 5 9 5 16 5 16 1 0 -14 39 -33
45 -23 4 6 1 9 -7 8 -7 -2 -12 3 -10 10 1 8 -2 11 -7 8 -5 -4 -12 -2 -16 4 -4
6 -10 8 -14 6 -4 -3 -5 9 -3 26 3 22 1 29 -7 24 -6 -4 -9 -11 -6 -16 7 -12 -5
-40 -17 -40 -6 0 -5 6 2 15 10 12 10 18 -1 32 -8 9 -9 14 -3 10 7 -4 14 0 18
8 3 8 -3 19 -12 24 -14 9 -14 11 -2 12 8 1 18 1 21 1 3 -1 6 13 6 29 0 20 -4
26 -11 19 -5 -5 -15 -10 -21 -10 -5 0 -2 7 8 14 12 9 14 16 8 21 -8 4 -8 12
-1 25 6 11 6 21 1 25 -5 3 -12 -3 -15 -12 -4 -16 -5 -16 -3 1 1 10 13 26 27
34 14 9 22 12 18 8 -4 -5 -3 -18 3 -29 6 -10 7 -17 2 -14 -5 4 -10 1 -10 -6 0
-7 -2 -18 -4 -26 -2 -8 6 -15 21 -17 24 -4 24 -4 5 11 -13 10 -15 14 -5 12 8
-2 12 -2 8 0 -5 3 -8 9 -8 14 0 6 6 7 13 3 9 -6 9 -4 -1 8 -9 11 -10 18 -2 23
5 3 10 12 9 18 0 9 -2 9 -6 0 -6 -17 -24 -17 -21 -1 2 7 -8 12 -21 13 -13 0
-26 7 -28 15 -4 12 -3 12 5 1 6 -8 12 -10 16 -3 4 6 -2 16 -11 22 -16 10 -16
11 -1 6 10 -3 20 -1 23 4 6 10 -5 13 -35 11 -10 0 -11 1 -2 5 6 3 9 11 5 17
-4 7 1 6 10 -2 9 -7 17 -10 17 -5 0 5 4 3 9 -5 5 -8 8 -22 6 -32 -2 -10 3 -20
10 -23 9 -3 12 0 8 10 -4 10 0 13 13 8 18 -5 18 -5 1 6 -15 10 -16 14 -5 27
10 12 9 17 -3 27 -9 6 -16 15 -17 19 0 5 -4 12 -8 15 -4 4 -4 2 -1 -5 5 -7 0
-9 -15 -5 -14 3 -19 2 -14 -6 4 -7 14 -12 22 -12 8 0 14 -4 14 -10 0 -6 -10
-5 -25 2 -14 6 -24 17 -21 24 3 8 1 16 -5 19 -5 4 -7 11 -3 16 3 5 9 7 14 4 5
-3 11 -1 15 5 4 6 11 8 16 4 5 -3 7 -9 4 -14 -3 -4 2 -10 10 -13 9 -4 12 -1 8
9 -3 7 0 14 6 14 6 0 11 5 11 11 0 5 -4 8 -9 4 -5 -3 -12 -1 -16 5 -4 7 -13 7
-26 -1 -12 -6 -23 -8 -27 -5 -3 3 0 6 7 6 7 0 9 5 6 10 -3 6 -1 10 5 10 7 0 8
5 3 13 -10 15 -11 57 -2 51 4 -2 9 -1 12 3 2 5 2 2 0 -5 -1 -7 1 -11 6 -8 5 3
12 -1 15 -10 9 -24 7 -29 -6 -16 -15 15 -28 15 -28 1 0 -5 4 -8 9 -4 5 3 13 0
17 -6 4 -7 3 -9 -3 -6 -5 3 -10 1 -10 -6 0 -7 8 -13 18 -13 10 0 15 6 12 13
-4 9 0 11 11 7 9 -3 13 -11 9 -17 -4 -6 -1 -7 7 -2 10 6 9 11 -4 21 -11 7 -15
18 -10 25 4 7 3 10 -4 5 -9 -5 -25 22 -27 46 0 3 -4 10 -9 15 -5 4 -6 3 -3 -3
11 -18 -23 -26 -39 -9 -11 10 -12 15 -3 15 7 0 5 8 -7 22 -18 21 -18 22 -1 8
11 -8 29 -15 40 -17 14 -2 6 6 -22 23 -32 20 -40 29 -30 35 8 5 19 9 24 9 6 0
4 -4 -3 -9 -9 -5 -2 -8 20 -8 18 0 25 2 15 4 -9 3 -15 8 -12 13 3 4 -11 7 -29
6 -19 -1 -33 1 -30 3 2 2 -3 12 -12 22 -14 16 -14 19 6 39 19 19 19 21 3 18
-10 -2 -17 2 -15 10 1 9 -5 11 -23 6 -20 -5 -24 -3 -19 10 3 9 11 13 17 9 6
-3 7 -1 3 6 -5 8 -12 9 -20 2 -7 -6 -17 -6 -26 -1 -12 8 -13 13 -2 30 7 11 9
20 5 21 -46 5 -74 14 -103 33 -19 13 -44 29 -55 35 -18 11 -18 11 5 5 21 -6
23 -5 13 8 -7 8 -10 18 -6 21 3 4 -1 7 -10 7 -8 0 -17 -5 -19 -11 -5 -14 -35
-1 -43 19 -6 16 -5 16 11 0 15 -15 19 -15 40 -1 13 8 21 20 17 27 -4 6 1 5 10
-3 23 -18 54 -7 37 14 -8 9 -8 15 -2 15 6 0 12 -6 15 -12 2 -7 8 -9 13 -5 5 5
-2 18 -16 29 l-25 20 27 -16 c34 -20 38 -20 38 -1 0 8 4 15 9 15 15 0 81 57
73 64 -4 4 -1 6 6 4 19 -4 42 33 25 39 -7 3 -13 9 -13 15 0 7 4 7 13 1 20 -17
46 -11 44 9 -1 10 -5 18 -9 18 -4 0 -8 5 -8 11 0 8 4 9 13 0 16 -13 27 -5 27
21 0 10 4 18 10 18 5 0 7 -6 4 -14 -3 -8 3 -15 14 -18 25 -7 23 17 -3 35 -10
8 -15 19 -11 25 4 8 -3 10 -24 7 -17 -2 -28 0 -24 6 3 5 10 7 15 3 5 -3 21 2
34 10 14 9 25 12 25 6 0 -5 -6 -10 -12 -10 -9 0 -8 -4 2 -10 10 -6 11 -10 3
-10 -7 0 -13 -5 -13 -12 0 -6 3 -8 7 -5 3 4 13 1 21 -6 10 -8 13 -8 9 -1 -7
12 20 29 38 25 5 -2 6 1 2 5 -11 11 -38 14 -31 3 6 -10 -9 -12 -19 -2 -10 9
14 34 26 26 6 -3 7 -1 3 5 -4 7 -2 12 5 12 7 0 10 3 6 6 -3 3 -12 2 -19 -2 -7
-5 -22 -9 -33 -10 -11 -1 -29 -4 -40 -9 -16 -5 -17 -5 -5 4 8 5 15 16 16 23 3
34 5 37 22 31 14 -6 15 -4 5 8 -10 12 -10 18 0 28 10 11 7 12 -13 6 -17 -4
-21 -3 -11 3 9 7 10 12 2 16 -14 9 -6 22 18 35 13 7 18 6 18 -4 0 -7 -7 -11
-16 -8 -14 4 -14 4 -1 -6 13 -9 13 -11 0 -11 -12 -1 -12 -2 2 -10 9 -6 15 -19
13 -29 -2 -11 3 -22 10 -25 9 -3 12 0 8 10 -4 10 0 12 13 7 12 -4 8 3 -11 21
-27 24 -27 26 -7 21 13 -4 22 -2 22 5 0 6 -5 8 -11 4 -7 -4 -10 -1 -7 7 3 8
14 13 26 13 12 -1 19 2 17 7 -3 4 -14 6 -25 4 -11 -2 -22 0 -25 5 -3 5 -14 7
-25 5 -20 -4 -48 30 -36 43 3 3 6 0 6 -6 0 -9 5 -9 20 0 11 7 19 17 19 23 -3
23 2 36 10 30 16 -9 35 35 22 48 -14 14 -14 30 -1 22 6 -3 10 -1 10 5 0 7 -7
9 -16 6 -14 -5 -15 -4 -4 9 7 8 9 15 4 15 -5 0 0 8 11 16 20 16 19 16 -4 9
-15 -5 -21 -4 -17 3 3 6 1 14 -5 18 -8 5 -9 3 -4 -7 7 -11 6 -12 -7 -2 -8 7
-17 10 -21 7 -3 -3 -10 4 -17 15 -7 14 -7 21 0 21 5 0 10 -7 10 -16 0 -14 3
-14 16 -3 14 11 13 14 -5 23 -15 8 -18 15 -11 26 8 13 10 12 10 -3 0 -21 24
-18 26 4 1 8 3 19 4 24 5 16 8 29 9 39 0 5 7 3 15 -3 11 -9 16 -9 22 0 4 7 3
9 -3 6 -5 -4 -23 7 -38 23 -22 23 -25 31 -14 35 22 8 20 41 -2 51 -18 9 -19
10 -4 29 15 17 16 18 11 2 -3 -10 -2 -16 3 -12 5 3 12 -1 14 -7 4 -8 6 -9 6
-2 1 7 -8 22 -20 35 -11 13 -17 17 -13 9 5 -11 4 -12 -5 -4 -14 13 -24 57 -10
49 5 -4 6 -12 3 -18 -4 -7 -3 -9 1 -4 5 4 16 0 26 -9 14 -12 18 -13 25 -2 4 7
4 10 0 6 -11 -9 -46 23 -46 42 1 12 4 11 15 -4 12 -16 15 -17 15 -4 0 9 -7 19
-16 22 -8 3 -12 11 -8 17 5 8 9 8 14 -1 4 -7 8 -1 8 15 0 16 -4 22 -8 15 -5
-9 -9 -9 -14 -1 -4 6 -1 13 6 16 24 9 18 42 -10 55 -15 8 -34 12 -42 11 -13
-2 -13 -1 0 8 11 8 11 11 2 11 -7 0 -11 4 -8 9 4 5 3 11 -1 14 -5 2 -3 2 4 1
6 -2 14 4 17 12 3 9 11 12 17 9 6 -4 8 -12 6 -19 -3 -7 5 -13 16 -14 12 0 17
2 11 6 -13 8 -15 41 -2 43 4 1 12 2 17 3 5 0 13 4 17 8 3 4 -3 5 -15 3 -11 -3
-30 -7 -42 -10 -12 -2 -26 -9 -33 -14 -8 -7 -12 -4 -13 12 -2 14 1 17 6 9 5
-9 11 -5 20 14 9 20 9 29 1 34 -8 5 -6 9 5 14 24 9 32 7 15 -4 -8 -5 -10 -10
-4 -10 6 0 11 -7 11 -15 0 -8 -4 -12 -8 -10 -4 3 -9 -1 -12 -9 -7 -18 27 -10
44 10 10 12 8 13 -7 7 -17 -6 -17 -5 -5 10 7 9 17 15 21 12 5 -3 12 0 16 6 4
7 3 9 -4 5 -6 -3 -13 -2 -17 4 -3 5 -1 10 4 10 6 0 11 5 11 12 0 6 -3 8 -7 5
-9 -10 -34 13 -27 25 4 6 -1 8 -14 4 -11 -4 -23 -2 -27 3 -4 7 1 8 11 4 12 -5
15 -3 9 6 -6 10 -3 11 13 2 16 -9 23 -8 29 3 7 12 10 12 21 0 8 -8 9 -14 2
-15 -5 -1 -14 -2 -19 -3 -5 0 -13 -5 -18 -10 -5 -5 4 -6 20 -2 21 5 27 4 21
-5 -4 -8 -3 -9 5 -5 6 4 9 11 6 16 -3 5 4 11 15 15 19 6 26 25 14 38 -8 8 -34
-3 -34 -15 0 -6 7 -4 17 3 14 12 16 12 11 -1 -7 -23 -34 -18 -30 5 2 11 4 28
5 38 1 16 3 17 13 3 6 -9 14 -13 17 -9 4 3 2 12 -4 20 -9 9 -8 13 0 13 6 0 11
-4 11 -8 0 -5 7 -9 15 -9 8 0 15 4 15 9 0 4 8 8 18 8 14 0 15 2 2 10 -20 13
-4 13 20 0 13 -7 21 -5 31 7 12 14 11 15 -8 9 -12 -4 -24 -2 -28 3 -4 7 1 8
11 4 12 -5 15 -3 9 6 -6 10 -3 11 13 2 14 -8 19 -17 15 -29 -6 -15 -5 -16 12
-2 15 12 19 13 23 2 3 -9 11 -4 23 15 10 15 19 23 19 16 0 -6 -5 -15 -11 -18
-6 -4 -8 -12 -6 -19 3 -7 -4 -13 -14 -13 -10 -1 -19 3 -19 10 0 8 -3 8 -11 0
-6 -6 -18 -9 -27 -6 -10 4 -13 2 -8 -6 4 -6 4 -11 -1 -10 -4 1 -15 1 -23 0
-13 -1 -13 -2 0 -12 13 -9 13 -10 0 -6 -8 2 -14 10 -12 17 1 6 -3 10 -10 7 -7
-2 -12 -9 -11 -15 2 -6 -6 -9 -17 -7 -11 2 -22 0 -25 -6 -4 -5 1 -9 10 -9 10
0 13 -5 9 -12 -4 -7 2 -5 14 6 16 14 25 16 35 8 10 -8 16 -6 25 9 7 11 17 17
22 14 6 -3 10 -1 10 4 0 6 5 11 11 11 6 0 8 -9 4 -22 -5 -20 -5 -21 5 -5 6 9
15 15 19 12 8 -5 30 15 28 25 0 3 3 12 9 21 8 15 12 14 38 -2 26 -16 27 -18 8
-16 -12 1 -22 5 -22 9 0 4 -5 8 -11 8 -5 0 -7 -5 -3 -12 5 -7 3 -8 -6 -3 -9 5
-11 4 -6 -4 4 -6 2 -18 -4 -26 -9 -11 -9 -15 -1 -15 6 0 11 5 11 11 0 5 4 7
10 4 6 -4 7 1 3 12 -6 16 -4 16 17 -2 13 -11 20 -15 17 -9 -8 13 20 27 34 18
5 -3 8 -1 7 5 -2 5 6 17 17 25 12 9 15 15 7 16 -7 0 -10 5 -7 10 5 8 11 7 21
-1 8 -7 14 -7 14 -1 0 5 -7 13 -16 16 -14 5 -14 7 0 22 9 9 14 26 12 40 -3 15
1 27 12 34 9 5 13 10 7 10 -5 1 -18 3 -27 5 -10 2 -21 -2 -25 -7 -3 -7 -1 -8
5 -4 8 5 10 2 6 -8 -3 -9 -1 -16 6 -16 6 0 8 -5 4 -11 -5 -8 -9 -8 -14 1 -4 6
-11 12 -16 13 -5 1 -8 8 -8 15 1 6 -2 12 -6 12 -5 0 -10 -6 -13 -12 -2 -7 -4
1 -3 19 0 17 4 29 9 26 4 -2 5 -8 2 -13 -3 -5 4 -8 15 -7 11 1 20 5 20 10 0 4
4 5 10 2 6 -3 7 1 3 10 -5 13 -7 14 -14 3 -7 -10 -9 -11 -9 0 0 7 -4 11 -9 7
-18 -10 -23 16 -7 34 26 29 18 37 -10 10 -26 -23 -26 -23 -13 -1 8 12 17 22
22 22 4 0 5 6 1 13 -5 7 0 6 11 -3 17 -14 18 -13 12 2 -4 11 0 19 12 23 10 3
18 12 18 20 0 8 -4 12 -9 9 -4 -3 -17 1 -28 9 -19 13 -20 16 -5 31 9 9 12 16
6 16 -6 0 -15 -9 -21 -20 -9 -16 -8 -22 5 -27 12 -4 13 -8 5 -13 -9 -5 -9 -9
-1 -14 6 -4 11 -2 11 4 0 6 5 8 11 4 8 -4 6 -10 -7 -17 -13 -7 -19 -7 -22 1
-2 7 -9 9 -14 6 -6 -4 -8 -2 -4 4 3 6 3 13 -2 16 -4 2 -7 25 -7 49 1 33 -3 47
-17 56 -14 8 -18 8 -18 -1 0 -9 -3 -9 -11 -1 -6 6 -24 8 -42 4 -18 -4 -47 -4
-65 0 -18 3 -34 3 -37 -1 -5 -8 -36 -7 -52 3 -6 4 -15 3 -18 -3 -5 -8 -12 -7
-23 2 -13 11 -14 11 -8 0z m348 -347 c5 -6 8 -4 8 4 0 8 3 11 7 8 3 -4 -2 -16
-12 -27 -10 -11 -15 -20 -10 -20 4 0 2 -7 -5 -15 -7 -8 -9 -15 -5 -15 4 0 2
-7 -5 -15 -16 -19 -20 -19 -50 6 l-25 21 28 -16 c28 -17 37 -10 15 12 -8 8 -9
12 -1 12 6 0 13 -5 15 -12 3 -9 6 -9 12 0 4 7 1 15 -8 18 -13 5 -12 9 7 25 20
17 20 19 3 17 -11 -2 -20 4 -21 14 -3 15 0 15 18 5 12 -7 25 -16 29 -22z
m-287 -83 c-3 -3 -11 0 -18 7 -9 10 -8 11 6 5 10 -3 15 -9 12 -12z m-83 -74
c-8 -8 -9 -4 -5 13 4 13 8 18 11 10 2 -7 -1 -18 -6 -23z m-22 -14 c0 -17 -16
-19 -26 -2 -5 7 -3 8 6 3 10 -6 12 -4 7 9 -4 10 -3 15 3 11 6 -3 10 -13 10
-21z m-45 -65 c-4 -6 -1 -10 6 -8 35 4 48 -15 25 -38 -4 -4 -7 -3 -6 2 6 29 0
36 -21 25 -11 -7 -23 -9 -27 -6 -3 3 0 6 6 6 7 0 11 3 11 8 -2 12 1 22 7 22 3
0 2 -5 -1 -11z m-17 -74 c-3 -3 -9 2 -12 12 -6 14 -5 15 5 6 7 -7 10 -15 7
-18z m38 -140 c12 -9 14 -14 6 -15 -7 0 -11 -4 -7 -9 3 -5 1 -13 -5 -16 -8 -5
-8 -11 0 -20 8 -9 8 -15 0 -20 -6 -3 -8 -10 -5 -15 9 -14 -16 -23 -28 -11 -8
8 -7 11 3 11 7 0 10 3 7 7 -4 3 -1 13 6 21 10 13 8 14 -13 9 -14 -4 -19 -4
-12 -1 6 3 12 10 12 16 0 6 8 17 18 24 16 12 15 13 -5 9 -16 -3 -20 0 -16 11
7 18 14 18 39 -1z m-36 -136 c0 -5 -8 -9 -17 -8 -11 0 -13 3 -5 6 6 2 9 10 6
15 -4 7 -2 8 4 4 7 -4 12 -11 12 -17z m24 -52 c4 4 4 -1 0 -11 -7 -17 -8 -17
-19 3 -6 12 -14 18 -19 14 -4 -4 -4 1 0 11 7 17 8 17 19 -3 6 -12 14 -18 19
-14z m-29 -16 c3 -5 0 -13 -6 -17 -7 -4 -9 -3 -5 4 3 5 0 13 -6 15 -9 4 -10 6
-1 6 6 1 14 -3 18 -8z m41 -36 c12 -9 14 -14 6 -15 -7 0 -11 -4 -7 -9 3 -5 0
-13 -6 -16 -7 -5 -3 -15 10 -29 12 -12 18 -26 14 -30 -4 -4 -8 -15 -8 -23 0
-20 -15 -26 -34 -14 -10 6 -11 13 -3 27 7 13 6 24 -4 40 -12 18 -12 24 -2 36
15 15 21 38 12 38 -4 0 -13 -8 -21 -17 -10 -14 -13 -14 -11 -3 3 15 17 30 29
30 3 0 14 -7 25 -15z m-36 -95 c0 -5 -5 -10 -11 -10 -5 0 -7 5 -4 10 3 6 8 10
11 10 2 0 4 -4 4 -10z m-2 -65 c-3 -3 -9 2 -12 12 -6 14 -5 15 5 6 7 -7 10
-15 7 -18z m47 -101 c12 -13 13 -19 4 -30 -9 -11 -8 -19 6 -33 13 -15 14 -24
6 -38 -7 -13 -10 -14 -11 -4 0 12 -3 11 -12 -2 -10 -13 -17 -14 -28 -6 -13 9
-12 10 3 5 9 -3 17 -4 17 -2 0 3 3 13 6 23 6 15 4 16 -7 6 -7 -7 -18 -13 -23
-13 -6 0 -3 7 7 14 15 12 16 15 2 26 -14 11 -13 14 1 25 12 8 14 14 6 19 -7 4
-12 2 -12 -5 0 -7 -3 -9 -6 -6 -6 6 13 37 22 37 1 0 10 -7 19 -16z m-27 -142
c2 -7 -1 -12 -8 -12 -6 0 -9 4 -6 9 4 5 1 12 -4 14 -6 3 -5 4 2 3 6 -1 14 -8
16 -14z m-15 -167 c-3 -9 -8 -14 -10 -11 -3 3 -2 9 2 15 9 16 15 13 8 -4z
m-10 -130 c-3 -9 -8 -14 -10 -11 -3 3 -2 9 2 15 9 16 15 13 8 -4z m-43 -55 c6
-11 7 -20 2 -20 -6 0 -12 9 -15 20 -3 11 -3 20 -1 20 2 0 8 -9 14 -20z m-62
-74 c-10 -7 -15 -16 -11 -19 3 -4 1 -7 -5 -7 -18 0 -14 18 6 29 24 15 30 13
10 -3z m-31 -41 c4 -4 2 -5 -4 -1 -8 4 -13 2 -14 -6 0 -10 -2 -10 -6 0 -2 6
-10 9 -15 6 -6 -4 -8 -2 -5 4 8 12 32 10 44 -3z m-107 -59 c0 -2 -7 -7 -16
-10 -8 -3 -12 -2 -9 4 6 10 25 14 25 6z m110 -188 c0 -14 -15 -16 -27 -3 -10
11 -9 13 7 12 11 -1 20 -5 20 -9z m75 -87 c10 -17 -12 -21 -25 -6 -10 12 -10
15 3 15 9 0 18 -4 22 -9z m127 -403 c-7 -7 -12 -8 -12 -2 0 6 3 14 7 17 3 4 9
5 12 2 2 -3 -1 -11 -7 -17z m-52 -252 c0 -2 -7 -7 -16 -10 -8 -3 -12 -2 -9 4
6 10 25 14 25 6z m-10 -46 c0 -5 -2 -10 -4 -10 -3 0 -8 5 -11 10 -3 6 -1 10 4
10 6 0 11 -4 11 -10z m-2 -205 c0 -13 -5 -22 -10 -19 -5 3 -6 15 -2 26 4 15 3
18 -6 13 -9 -5 -11 -4 -6 4 11 17 24 5 24 -24z m-7 -317 c-10 -11 -11 -9 -5 6
6 15 4 17 -6 11 -9 -6 -11 -4 -5 4 5 9 10 10 18 2 8 -8 7 -14 -2 -23z m415
-388 c0 -12 -4 -16 -9 -11 -5 5 -6 14 -3 20 10 15 12 14 12 -9z m-576 -158
c-14 -5 -12 -22 2 -19 7 1 18 8 24 16 9 11 10 9 8 -10 -1 -13 -3 -26 -3 -28
-1 -3 -6 0 -12 6 -6 6 -18 9 -26 6 -10 -4 -14 0 -12 13 2 10 0 25 -5 32 -7 11
-4 11 13 0 12 -7 17 -14 11 -16z m102 -19 c-6 -2 -9 -9 -6 -15 3 -5 15 -2 27
9 l22 18 -18 -22 c-11 -12 -16 -27 -12 -32 8 -14 -31 -9 -46 6 -12 12 14 44
34 42 8 0 8 -2 -1 -6z m488 -33 c-17 -23 -25 -28 -35 -20 -13 11 -36 10 -45
-1 -3 -4 -10 -1 -17 6 -10 10 -9 16 3 26 12 10 13 9 8 -7 -6 -15 -4 -17 6 -7
7 6 19 9 28 6 11 -5 13 -3 7 8 -8 12 -6 12 8 0 12 -9 17 -10 17 -2 0 7 4 10 9
6 5 -3 12 -1 16 5 3 5 8 10 11 10 3 0 -4 -14 -16 -30z m-343 14 c-3 -3 -12 -4
-19 -1 -8 3 -5 6 6 6 11 1 17 -2 13 -5z m-32 -15 c4 -6 13 -8 21 -5 25 10 15
-11 -12 -23 -33 -15 -62 3 -43 25 14 17 25 18 34 3z m158 -42 c-3 -5 -10 -4
-15 1 -6 6 -7 16 -3 22 6 9 9 9 16 -1 4 -7 5 -17 2 -22z"/>
<path d="M1801 4716 c-9 -11 -9 -16 1 -22 7 -4 10 -4 6 1 -4 4 -3 14 3 22 6 7
9 13 6 13 -2 0 -10 -6 -16 -14z"/>
<path d="M1382 4007 c-9 -10 -8 -19 3 -34 8 -11 11 -23 8 -27 -3 -3 -1 -6 5
-6 17 0 15 19 -3 37 -12 12 -13 18 -4 29 6 8 9 14 6 14 -2 0 -9 -6 -15 -13z"/>
<path d="M1385 3920 c3 -5 10 -10 16 -10 5 0 9 5 9 10 0 6 -7 10 -16 10 -8 0
-12 -4 -9 -10z"/>
<path d="M1397 3780 c10 -10 10 -17 1 -27 -9 -11 -6 -19 12 -36 l24 -22 -18
22 c-15 18 -16 26 -7 36 9 11 7 17 -6 28 -15 11 -16 11 -6 -1z"/>
<path d="M1276 1031 c-4 -5 -2 -12 3 -15 5 -4 12 -2 15 3 4 5 2 12 -3 15 -5 4
-12 2 -15 -3z"/>
<path d="M1756 1008 c3 -5 10 -6 15 -3 13 9 11 12 -6 12 -8 0 -12 -4 -9 -9z"/>
<path d="M1385 1010 c-4 -6 1 -7 11 -3 13 5 15 3 9 -7 -5 -9 -4 -11 4 -6 6 4
9 12 6 17 -8 12 -22 12 -30 -1z"/>
<path d="M4190 5083 c0 -4 -17 -8 -37 -8 l-38 0 -2 -198 c-1 -120 2 -195 8
-192 5 4 9 2 9 -4 0 -6 7 -7 17 -4 12 5 14 3 8 -7 -6 -10 -4 -11 6 -4 24 15
63 12 83 -5 18 -15 19 -15 12 4 -7 18 -6 18 13 -2 25 -26 26 -30 6 -30 -8 0
-11 5 -8 11 4 6 -2 4 -13 -5 -10 -9 -26 -14 -34 -11 -12 3 -12 2 -3 -8 10 -11
15 -11 29 1 16 12 17 12 11 -4 -4 -11 -3 -16 3 -12 6 3 10 1 10 -4 0 -6 5 -11
12 -11 9 0 9 3 0 12 -16 16 -15 33 1 19 8 -6 17 -8 20 -4 4 3 7 1 7 -6 0 -7 5
-9 10 -6 18 11 10 24 -12 20 -16 -3 -19 -2 -11 6 6 6 9 19 6 28 -4 13 -3 13 5
2 13 -18 42 -23 42 -8 0 6 7 2 16 -9 13 -16 15 -16 10 -1 -7 22 10 22 18 0 6
-15 8 -15 16 -3 6 8 10 11 10 5 0 -5 -4 -16 -9 -24 -12 -19 8 -51 32 -51 13 0
17 5 13 16 -3 9 -6 20 -6 25 0 5 -5 9 -10 9 -7 0 -7 -7 1 -21 8 -17 8 -20 -2
-17 -14 5 -21 36 -9 43 15 9 39 -6 33 -21 -4 -10 0 -13 13 -8 15 4 16 4 5 -4
-11 -8 -10 -11 7 -16 25 -8 39 -37 14 -30 -11 3 -9 -1 6 -12 12 -9 22 -25 22
-35 0 -24 -16 -24 -30 -1 -8 11 -10 12 -7 2 2 -8 13 -19 25 -25 21 -9 21 -11
17 -250 -2 -132 -7 -278 -10 -325 -4 -47 -8 -130 -9 -186 -2 -55 -6 -106 -10
-112 -4 -7 -4 -12 1 -12 4 0 8 -21 7 -47 -1 -27 5 -73 13 -103 8 -30 16 -59
17 -65 1 -5 18 -35 39 -66 40 -61 47 -79 20 -58 -16 13 -17 12 -4 -3 7 -10 16
-16 20 -14 11 7 36 -12 36 -26 0 -7 5 -13 11 -13 14 0 44 -31 44 -45 0 -7 7
-10 15 -6 8 3 15 1 15 -5 0 -6 4 -8 9 -4 6 3 14 -1 18 -10 5 -8 21 -16 35 -17
15 -1 26 -7 25 -13 -1 -5 6 -9 16 -7 20 3 21 -2 6 -31 l-12 -22 23 20 c13 11
20 14 16 8 -4 -8 -2 -13 5 -13 18 0 5 -10 -19 -15 -11 -2 -34 -11 -51 -19 -17
-9 -31 -14 -31 -11 0 3 -10 -4 -22 -15 -13 -10 -27 -21 -32 -22 -6 -2 -35 -29
-65 -60 -30 -31 -59 -54 -64 -51 -6 3 -7 1 -4 -4 4 -6 -6 -35 -22 -64 -31 -58
-47 -109 -55 -176 -2 -23 -7 -47 -11 -52 -3 -6 -3 -11 2 -11 4 0 9 -66 10
-148 1 -81 4 -164 6 -184 3 -24 0 -38 -7 -38 -7 0 -6 -3 2 -8 7 -5 12 -22 12
-38 0 -16 2 -126 5 -244 6 -258 -4 -324 -55 -381 -18 -20 -80 -52 -80 -42 0 5
-4 2 -9 -6 -6 -9 -30 -14 -70 -15 -33 0 -61 -5 -61 -9 0 -4 -8 -3 -19 2 -10 6
-22 7 -26 3 -3 -4 -23 -8 -43 -8 -21 -1 -42 -2 -49 -3 -15 -1 -17 -369 -2
-387 6 -7 17 -10 25 -7 8 3 22 -3 30 -13 11 -13 14 -14 11 -4 -3 12 5 15 35
16 23 1 34 -2 27 -7 -7 -4 -17 -5 -21 -3 -7 5 -12 -11 -9 -29 1 -5 -7 -6 -18
-2 -11 3 -22 2 -25 -3 -3 -5 17 -8 45 -7 27 1 52 -2 55 -7 8 -13 27 -9 21 5
-3 7 3 23 12 36 16 21 17 21 18 1 1 -12 -2 -18 -9 -14 -7 5 -8 2 -3 -6 6 -9 4
-11 -5 -5 -9 5 -11 4 -6 -4 4 -6 12 -9 17 -5 6 3 18 -1 27 -10 12 -10 22 -12
32 -6 23 15 34 12 20 -5 -7 -8 -9 -15 -5 -15 4 0 15 10 25 22 17 21 19 22 37
7 26 -23 48 -34 39 -21 -7 11 9 25 32 28 7 2 11 -3 9 -9 -3 -7 -10 -11 -16
-10 -6 2 -11 -1 -11 -6 0 -6 9 -9 19 -8 11 0 17 5 15 9 -3 4 0 8 6 8 6 0 8 5
5 10 -10 17 7 11 20 -7 9 -13 14 -13 20 -3 6 9 4 11 -5 5 -8 -5 -11 -3 -8 6 3
8 12 15 21 17 12 3 15 -1 10 -14 -4 -12 -3 -15 6 -10 6 4 9 16 6 27 -5 14 -3
17 9 13 9 -3 16 -12 16 -19 0 -7 8 -16 18 -20 14 -5 15 -4 5 6 -20 20 -15 31
8 19 15 -8 24 -8 34 0 10 8 14 8 18 -2 3 -7 5 -4 4 7 -3 21 -22 33 -22 13 0
-6 -5 -13 -11 -15 -6 -2 -11 3 -11 12 0 8 5 15 11 15 6 0 5 5 -2 12 -7 7 -12
17 -12 23 0 5 6 3 13 -5 7 -9 17 -15 24 -15 15 0 30 15 15 15 -6 0 -10 9 -9
19 1 12 6 17 16 13 9 -3 12 -1 7 6 -5 8 -2 10 9 6 11 -5 14 -2 9 12 -5 16 -4
16 5 4 8 -11 7 -18 -3 -25 -12 -9 -12 -14 2 -31 10 -10 16 -17 15 -15 -2 2 5
10 14 16 15 11 16 15 3 31 -14 17 -14 18 3 5 19 -15 24 -2 5 17 -18 18 -1 14
21 -4 11 -10 17 -23 14 -30 -3 -8 3 -12 16 -11 11 0 18 3 16 6 -3 2 2 15 10
28 9 13 11 23 5 23 -5 0 -10 -4 -10 -8 0 -5 -6 -17 -14 -28 -11 -14 -14 -15
-14 -4 2 33 -2 51 -11 45 -5 -3 -12 -1 -16 4 -3 6 3 8 14 6 11 -2 25 3 31 10
9 11 17 12 31 4 13 -6 19 -6 19 1 0 5 -4 10 -10 10 -5 0 -10 5 -10 11 0 8 6 7
16 -2 15 -12 16 -11 10 9 -8 24 3 29 22 10 9 -9 12 -9 12 0 0 6 -8 16 -17 21
-17 10 -17 10 0 11 9 0 17 -5 17 -11 0 -5 5 -7 10 -4 6 4 8 11 4 16 -6 11 13
39 27 39 5 0 9 -5 9 -11 0 -5 -4 -7 -10 -4 -5 3 -7 0 -4 -8 3 -8 -6 -27 -20
-42 -14 -15 -26 -24 -26 -19 -1 5 -8 -3 -16 -19 -12 -22 -18 -25 -33 -18 -20
11 -41 -3 -41 -28 0 -11 3 -10 14 4 12 16 16 17 30 6 9 -8 16 -9 16 -3 0 6 11
9 24 8 20 -3 23 1 21 21 -1 16 2 23 10 19 8 -3 11 2 8 15 -3 11 0 19 6 19 7 0
9 -5 5 -12 -4 -7 -3 -8 5 -4 6 4 8 12 5 18 -5 8 -1 9 12 4 15 -6 17 -5 7 5
-14 14 -18 33 -5 25 4 -2 14 0 22 6 12 8 12 9 -2 4 -20 -6 -22 2 -8 24 7 11
10 11 10 2 0 -7 5 -10 11 -7 6 5 3 13 -10 22 -21 14 -20 33 0 33 6 0 8 -4 4
-9 -10 -17 17 -24 31 -7 8 9 9 11 2 6 -18 -15 -24 -12 -25 10 -1 11 2 18 7 15
6 -3 7 1 4 10 -5 11 -2 14 12 9 15 -5 16 -4 4 4 -8 6 -18 8 -24 5 -6 -4 -6 1
-1 13 4 10 8 31 9 47 1 30 6 33 25 15 9 -9 12 -9 7 -1 -3 6 1 19 10 28 13 13
14 16 3 15 -32 -5 -42 0 -30 14 6 7 8 22 4 32 -6 17 -5 17 11 5 9 -8 15 -20
12 -28 -3 -8 -2 -11 3 -8 10 6 11 44 1 43 -17 -1 -20 4 -10 22 9 16 8 18 -5
14 -11 -4 -13 -2 -9 9 3 10 -3 20 -18 28 -31 16 -29 14 -22 33 3 9 10 13 15
10 5 -3 9 2 9 10 0 21 -5 20 -30 -7 -15 -15 -19 -17 -15 -5 4 9 18 24 32 33
14 10 23 12 19 7 -3 -6 -2 -14 4 -17 8 -5 7 -12 -2 -23 -11 -13 -11 -14 1 -7
9 5 18 2 27 -10 12 -16 13 -16 11 3 0 11 -5 18 -11 15 -5 -4 -7 1 -3 11 4 9 3
14 -2 11 -5 -3 -12 -1 -15 4 -6 10 22 26 39 22 6 -1 4 4 -4 11 -11 10 -14 10
-18 1 -6 -18 -20 -16 -20 2 0 14 10 19 30 16 5 -1 6 3 2 8 -3 6 -12 8 -21 4
-9 -3 -14 0 -12 8 2 8 -4 14 -12 14 -8 0 -18 5 -23 12 -9 14 2 45 14 37 5 -3
9 2 9 11 0 9 5 13 10 10 6 -4 9 -9 7 -13 -2 -4 4 -15 14 -24 17 -16 18 -16 16
2 -1 10 -5 16 -11 13 -5 -4 -7 1 -3 11 4 9 3 14 -2 11 -5 -3 -13 0 -16 6 -4 5
-14 8 -22 5 -8 -3 -12 -2 -8 3 3 5 -1 12 -7 15 -11 5 -11 7 0 12 6 3 9 11 5
17 -4 7 0 7 10 -1 14 -12 16 -11 14 7 -1 12 -6 20 -12 17 -6 -2 -19 2 -30 10
-17 12 -17 14 -2 14 9 0 17 -5 17 -11 0 -5 4 -8 10 -4 5 3 7 12 3 20 -3 8 0
15 6 15 6 0 10 -3 9 -7 -4 -19 16 -63 35 -80 15 -12 18 -13 9 -2 -6 9 -8 20
-4 24 4 5 1 5 -5 1 -9 -5 -13 -1 -13 12 0 10 -3 22 -7 26 -4 3 -8 12 -9 19 -1
7 -5 21 -9 32 -7 20 -6 20 9 1 9 -11 16 -15 16 -9 0 7 -4 14 -9 18 -6 3 -8 19
-6 35 3 22 0 27 -12 23 -12 -5 -12 -7 -1 -14 9 -6 10 -11 2 -16 -6 -5 -10 -18
-9 -30 1 -13 -1 -21 -3 -18 -3 3 -10 -3 -17 -12 -9 -13 -14 -13 -20 -3 -5 8
-4 11 2 7 6 -4 14 0 17 9 10 25 7 27 -11 13 -11 -8 -9 -3 4 11 12 14 21 33 19
42 -3 21 -16 36 -16 20 0 -7 -8 -12 -17 -11 -11 0 -13 3 -5 6 6 2 9 10 5 16
-3 7 -3 9 2 5 4 -4 15 -2 23 5 13 10 14 9 7 -2 -6 -10 -4 -12 5 -6 9 5 11 4 6
-3 -5 -8 -1 -10 10 -5 15 6 15 7 -1 15 -15 9 -15 11 1 29 24 27 25 45 4 45
-10 0 -16 -4 -14 -8 3 -4 -2 -5 -10 -2 -9 3 -16 1 -16 -4 0 -6 12 -9 26 -6 17
3 23 1 19 -6 -4 -6 -13 -9 -21 -6 -8 3 -11 0 -8 -8 3 -7 -2 -16 -11 -20 -9 -3
-13 -2 -10 3 3 5 0 11 -7 14 -7 2 -4 3 7 1 19 -3 19 -2 2 11 -12 9 -15 15 -7
20 8 5 5 12 -7 22 -17 13 -16 13 4 4 29 -14 28 -14 30 10 2 16 -1 18 -11 10
-13 -11 -26 -5 -26 12 0 5 7 7 15 4 8 -4 17 -2 20 2 3 5 -2 11 -10 15 -9 3
-12 12 -8 22 4 12 3 15 -5 10 -7 -4 -12 -2 -12 4 0 7 7 10 15 6 8 -3 15 -1 15
4 0 6 -4 10 -9 10 -5 0 -8 12 -6 27 2 16 -2 34 -9 42 -8 11 -8 15 2 19 7 2 19
10 27 19 8 8 15 11 15 7 0 -3 7 -1 15 6 8 7 12 16 9 21 -3 5 -7 21 -10 35 -3
19 -1 24 8 18 19 -12 39 -14 32 -3 -3 5 -9 7 -14 4 -8 -5 -25 23 -22 38 1 4
-9 13 -23 19 -14 6 -24 17 -21 24 3 7 -2 15 -10 17 -9 3 -8 4 3 3 10 -1 18 -8
18 -15 0 -8 5 -16 12 -18 18 -6 9 28 -13 45 -15 11 -15 13 -2 9 11 -4 22 3 32
19 11 16 13 24 5 24 -7 0 -10 2 -7 5 8 8 38 -6 38 -17 0 -5 -4 -7 -8 -4 -5 3
-9 -1 -9 -9 0 -8 5 -15 10 -15 6 0 3 -8 -6 -18 -10 -10 -14 -22 -10 -26 4 -4
1 -11 -7 -16 -8 -6 -10 -10 -5 -10 6 0 17 5 25 11 11 8 12 12 2 16 -6 2 -10 9
-6 14 3 5 11 6 17 2 16 -10 41 -13 32 -5 -4 4 -11 7 -17 7 -6 0 -12 9 -14 19
-3 23 11 52 23 49 4 -2 8 2 8 8 0 6 8 17 18 24 14 10 15 15 5 21 -21 13 -50
15 -43 3 4 -6 13 -8 21 -5 8 3 14 1 14 -4 0 -14 -18 -21 -25 -10 -4 6 -15 8
-26 5 -12 -4 -19 -2 -19 6 0 7 3 9 7 6 3 -4 11 0 17 9 6 8 20 17 31 19 11 2
22 4 25 4 3 1 -2 6 -10 11 -12 8 -12 10 -1 10 10 0 9 6 -4 28 -13 20 -8 17 18
-10 37 -41 47 -44 65 -26 9 9 12 9 12 0 0 -7 8 -12 18 -12 13 0 14 2 3 9 -7 5
-9 11 -5 13 12 6 55 -17 49 -25 -3 -4 -2 -5 2 -2 14 11 11 39 -5 52 -16 12
-16 14 2 28 10 8 24 12 29 8 7 -4 8 1 3 12 -5 14 -4 16 7 7 10 -9 17 -8 25 0
8 8 12 8 12 2 0 -13 -50 -38 -67 -35 -7 1 -13 -3 -13 -9 0 -6 4 -9 9 -6 13 8
34 -21 25 -35 -4 -8 -3 -9 5 -5 6 4 11 13 10 19 -3 25 1 38 11 32 5 -3 7 -11
4 -19 -3 -7 2 -13 11 -13 13 0 13 3 -1 25 -15 23 -15 25 1 19 9 -4 19 -7 21
-7 3 0 3 -4 -1 -9 -3 -5 -1 -12 4 -16 6 -3 8 6 5 21 -5 25 -3 26 12 13 16 -13
16 -12 0 13 -17 26 -17 26 5 33 17 6 19 9 8 16 -20 12 -37 11 -19 -2 13 -9 13
-10 0 -6 -8 2 -14 10 -12 17 2 7 -5 9 -18 5 -12 -4 -20 -2 -20 5 0 6 5 8 10 5
14 -9 12 8 -2 24 -8 8 -8 11 -2 8 7 -4 18 1 25 10 12 14 11 15 -11 9 -19 -6
-21 -5 -10 3 13 9 13 11 -2 11 -9 0 -20 4 -23 10 -4 7 3 7 20 0 35 -13 40 -13
26 3 -8 10 -7 17 1 25 9 9 9 12 0 12 -6 0 -16 -8 -21 -18 -6 -9 -10 -12 -10
-7 0 6 6 18 14 28 14 19 10 51 -5 42 -4 -3 -7 3 -6 13 0 10 -5 16 -13 14 -11
-2 -12 0 -3 11 7 8 9 17 5 20 -3 4 -1 7 6 7 7 0 11 -7 8 -15 -8 -20 5 -26 21
-9 10 11 10 14 0 14 -6 0 -3 7 8 15 10 8 15 15 10 15 -6 0 -1 7 10 15 16 13
16 14 2 9 -10 -3 -18 -2 -18 4 0 5 -7 13 -16 16 -8 3 -13 2 -9 -3 3 -5 2 -11
-2 -14 -5 -2 -1 -2 7 0 8 2 11 1 7 -3 -4 -4 -3 -12 3 -18 6 -8 2 -12 -13 -13
-12 0 -16 1 -8 4 10 4 7 9 -10 19 -13 7 -18 13 -11 14 8 0 10 5 5 13 -11 18
-12 36 -2 43 17 10 -16 31 -61 37 -25 3 -54 8 -65 11 -11 2 -28 5 -37 5 -9 1
-23 8 -31 16 -8 8 -17 12 -19 10 -3 -3 -15 6 -27 19 -17 18 -19 26 -10 31 8 5
10 4 5 -3 -10 -17 -1 -15 14 3 10 12 8 14 -9 10 -12 -2 -26 -7 -31 -10 -6 -4
-7 1 -3 11 5 13 3 15 -8 9 -12 -7 -12 -6 -1 7 15 19 25 61 12 53 -5 -3 -11 -1
-14 4 -6 10 22 26 39 22 6 -1 4 4 -4 11 -11 10 -14 10 -18 1 -6 -18 -20 -16
-20 2 0 8 4 15 8 15 4 0 10 8 13 17 6 15 4 15 -14 -2 -11 -10 -20 -13 -20 -7
0 6 4 14 10 17 13 8 33 46 23 44 -4 -1 -17 -1 -28 0 -20 2 -20 2 0 17 17 13
31 79 14 68 -12 -7 -18 23 -6 35 17 17 17 41 1 34 -10 -4 -12 0 -8 11 3 9 9
14 13 12 4 -3 8 5 8 17 2 20 1 20 -8 5 -6 -10 -15 -18 -21 -18 -6 0 -5 6 3 16
10 13 10 17 -1 24 -8 5 -11 12 -7 16 3 4 15 1 24 -7 16 -12 17 -12 6 2 -7 9
-9 20 -5 24 4 5 1 5 -5 1 -7 -4 -23 -1 -35 6 -13 7 -27 11 -33 9 -5 -1 -5 3 2
10 9 9 15 8 29 -5 9 -9 19 -14 23 -10 3 4 0 9 -6 11 -20 7 -15 19 7 20 11 1
18 -2 15 -6 -2 -5 2 -14 10 -21 8 -7 12 -17 8 -23 -4 -6 -1 -7 6 -3 9 6 9 12
-2 24 -8 10 -13 27 -11 40 4 22 3 23 -13 6 -12 -11 -18 -13 -21 -5 -3 9 -8 9
-20 -1 -12 -10 -14 -10 -8 0 4 7 2 12 -6 12 -8 0 -6 5 5 11 9 5 17 15 17 21 0
9 -3 9 -12 0 -7 -7 -16 -12 -21 -12 -5 0 2 9 17 21 14 11 26 25 26 31 0 7 -12
1 -27 -13 -23 -19 -24 -20 -10 -2 18 20 18 22 0 32 -10 6 -13 11 -6 11 6 0 15
-5 19 -12 8 -12 34 17 34 36 0 6 -7 2 -15 -8 -8 -11 -15 -14 -15 -7 0 7 -5 9
-12 5 -8 -4 -10 -3 -5 2 5 5 12 9 15 9 4 0 13 4 21 9 21 13 33 -15 15 -35 -14
-16 -14 -18 4 -28 15 -8 23 -7 31 3 9 10 9 16 1 21 -6 4 -9 3 -8 -2 3 -9 -5
-13 -24 -13 -6 0 -4 8 6 19 11 12 15 25 10 33 -12 19 -14 38 -3 38 5 0 9 9 9
20 0 23 -4 24 -31 9 -14 -7 -17 -14 -10 -23 6 -7 6 -17 1 -25 -7 -12 -11 -12
-24 2 -9 8 -16 19 -16 23 0 5 5 3 12 -4 18 -18 33 -15 17 4 -11 13 -10 17 5
26 16 9 16 11 0 36 -9 15 -13 24 -9 20 4 -4 14 0 22 10 10 13 13 14 11 2 -2
-8 -7 -18 -13 -22 -6 -5 -5 -8 3 -8 7 0 10 -4 7 -10 -3 -5 -1 -10 4 -10 6 0
11 6 11 13 0 9 2 9 9 -1 7 -11 10 -10 15 3 3 9 1 24 -4 33 -9 14 -10 12 -4 -8
6 -22 5 -23 -9 -11 -9 7 -15 18 -14 24 1 7 -6 11 -15 11 -10 -1 -16 2 -13 6 3
5 0 10 -6 12 -5 2 -7 11 -4 21 4 9 11 15 15 12 4 -3 11 2 14 11 4 9 9 14 13
11 3 -4 0 -14 -8 -24 -11 -13 -11 -15 -1 -9 8 5 22 1 35 -11 14 -12 18 -13 9
-2 -6 9 -8 20 -4 24 4 5 1 5 -5 1 -9 -5 -13 0 -13 13 0 12 -3 21 -6 21 -11 0
-50 -24 -62 -39 -11 -14 -11 -13 -2 7 6 12 14 22 18 22 5 0 18 9 30 20 12 12
22 17 22 12 0 -5 7 -9 16 -9 12 0 9 6 -10 20 -14 10 -24 23 -20 28 3 5 -6 14
-20 21 -31 13 -32 19 -8 49 15 17 21 19 27 9 5 -8 4 -11 -2 -7 -5 3 -10 0 -10
-8 0 -8 5 -11 10 -8 6 3 16 -2 23 -12 12 -16 13 -16 11 3 0 12 -3 19 -6 17 -2
-3 -11 4 -18 15 -12 17 -12 24 -2 36 6 8 9 17 6 20 -8 8 -28 -6 -22 -16 3 -4
-2 -13 -10 -20 -10 -9 -15 -9 -15 -1 0 6 5 11 11 11 8 0 8 4 0 14 -6 8 -11 18
-10 22 3 14 -12 44 -20 39 -4 -2 -8 2 -8 10 0 22 15 18 22 -5 4 -11 10 -18 15
-15 5 3 12 0 16 -6 5 -8 3 -9 -6 -4 -9 5 -11 4 -6 -3 14 -23 23 -11 22 27 -1
21 -7 45 -14 53 -12 15 -7 28 10 28 5 0 7 -4 3 -9 -3 -5 -1 -12 4 -15 5 -4 8
2 7 11 -2 10 -9 18 -17 18 -8 0 -20 7 -27 15 -11 12 -11 11 -1 -10 6 -14 8
-22 4 -17 -5 4 -16 0 -25 -8 -14 -13 -17 -13 -17 -1 0 8 5 14 10 13 5 -1 12 4
15 12 3 8 0 11 -7 7 -6 -4 -11 -3 -11 2 0 16 30 23 53 11 22 -10 22 -10 2 6
-11 9 -19 18 -17 21 1 2 -2 12 -7 22 -7 11 -10 13 -11 3 0 -7 -6 -11 -15 -7
-8 3 -15 2 -15 -3 0 -16 14 -20 29 -8 14 11 14 10 2 -6 -13 -16 -16 -16 -29
-3 -16 15 -7 40 10 30 7 -5 8 -2 4 5 -5 7 -15 10 -25 7 -9 -4 -5 2 9 13 14 11
21 23 17 27 -4 4 1 17 10 28 17 20 17 20 1 7 -11 -8 -18 -9 -18 -3 0 6 -9 10
-20 9 -11 -1 -20 -5 -20 -10 0 -5 7 -6 16 -3 8 3 12 2 9 -3 -3 -5 -1 -12 5
-16 5 -3 10 -10 10 -15 0 -5 -12 2 -27 16 -14 13 -23 27 -20 31 4 3 0 15 -10
25 -9 10 -12 18 -7 18 5 0 2 5 -6 11 -12 8 -12 9 5 7 13 -2 20 3 22 17 2 16 1
17 -5 4 -10 -23 -36 -11 -66 29 -13 19 -43 47 -65 64 -23 16 -39 34 -36 39 4
5 0 6 -8 3 -8 -3 -23 3 -32 13 -10 10 -19 16 -19 14 -2 -8 -86 23 -86 31 0 5
-4 7 -9 3 -5 -3 -31 0 -58 5 -26 6 -73 14 -103 17 -30 3 -58 10 -62 17 -6 8
-8 7 -8 -1 0 -7 -9 -13 -20 -13 -11 0 -20 6 -20 13 0 9 -2 9 -9 -1 -4 -8 -12
-14 -16 -14 -4 0 -12 6 -16 14 -5 7 -9 9 -9 3 0 -5 -11 -10 -25 -10 -14 0 -25
4 -25 8 0 5 -5 5 -12 1 -7 -4 -24 -8 -38 -8 -14 0 -31 4 -38 8 -7 4 -12 4 -12
-1z m820 -363 c0 -5 -2 -10 -4 -10 -3 0 -8 5 -11 10 -3 6 -1 10 4 10 6 0 11
-4 11 -10z m70 -165 c10 -12 10 -15 -1 -15 -11 0 -11 -2 1 -10 8 -5 11 -12 7
-17 -9 -8 -28 17 -21 28 2 4 0 10 -6 14 -5 3 -10 1 -10 -4 0 -6 -5 -11 -11
-11 -8 0 -8 5 1 15 7 8 16 15 20 15 4 0 13 -7 20 -15z m-30 -85 c0 -5 -2 -10
-4 -10 -3 0 -8 5 -11 10 -3 6 -1 10 4 10 6 0 11 -4 11 -10z m0 -30 c0 -5 -2
-10 -4 -10 -3 0 -8 5 -11 10 -3 6 -1 10 4 10 6 0 11 -4 11 -10z m-3 -52 c-3
-7 -5 -2 -5 12 0 14 2 19 5 13 2 -7 2 -19 0 -25z m38 -66 c-3 -3 0 -11 6 -18
7 -9 6 -14 -3 -20 -7 -4 -24 -14 -38 -22 l-25 -14 23 19 c18 15 20 21 10 32
-11 11 -10 12 1 6 10 -6 13 -4 9 7 -4 9 0 15 8 15 8 0 12 -3 9 -5z m-37 -157
c-3 -3 -9 2 -12 12 -6 14 -5 15 5 6 7 -7 10 -15 7 -18z m-2 -44 c-4 -5 -1 -11
6 -13 8 -3 6 -6 -4 -10 -11 -5 -15 -2 -13 10 5 23 4 22 11 22 3 0 3 -4 0 -9z
m46 -53 c-7 -7 -12 -8 -12 -2 0 6 3 14 7 17 3 4 9 5 12 2 2 -3 -1 -11 -7 -17z
m-47 -248 c4 -6 11 -7 17 -4 7 4 8 2 4 -5 -4 -6 -2 -18 4 -26 10 -12 9 -16 -5
-21 -15 -6 -15 -8 -2 -16 9 -5 14 -15 11 -23 -4 -10 0 -15 11 -15 17 0 17 -1
2 -17 -20 -23 -22 -34 -7 -43 18 -11 19 -44 2 -56 -24 -17 -25 -46 -1 -39 10
4 19 2 19 -3 0 -14 -26 -33 -33 -25 -4 3 -7 2 -7 -3 0 -6 5 -15 12 -22 14 -14
20 -45 8 -37 -5 3 -8 -4 -7 -15 1 -12 7 -18 14 -16 20 8 24 -10 6 -25 -9 -8
-14 -9 -10 -3 4 7 0 15 -9 18 -8 3 -12 10 -9 16 3 5 1 10 -6 10 -9 0 -9 3 0
14 10 11 8 17 -6 25 -12 7 -13 10 -4 11 10 0 9 6 -5 28 -15 23 -15 25 -1 13
25 -20 21 -2 -5 28 -14 16 -16 20 -5 11 17 -12 18 -11 14 11 -2 13 -2 18 0 12
8 -23 18 -14 19 17 1 23 -1 28 -11 20 -12 -10 -25 -4 -25 13 0 5 7 7 15 4 8
-4 17 -2 20 2 6 11 -23 23 -38 15 -7 -3 -3 2 8 11 19 15 19 17 2 29 -15 12
-16 14 -2 20 17 6 16 24 -2 44 -7 7 -13 18 -13 24 0 6 9 0 19 -13 11 -13 22
-21 25 -18 4 3 -5 18 -18 32 -14 15 -21 27 -16 27 5 0 12 -5 15 -10z m-133
-754 c7 4 8 2 4 -5 -9 -13 -26 -5 -25 12 0 9 2 8 6 -1 2 -6 10 -9 15 -6z m482
-31 c-4 -8 -8 -15 -10 -15 -2 0 -4 7 -4 15 0 8 4 15 10 15 5 0 7 -7 4 -15z
m33 -185 c1 -11 -3 -23 -9 -26 -6 -4 -8 -2 -5 4 4 5 4 17 1 26 -5 14 -9 14
-23 4 -14 -12 -14 -11 -3 4 16 21 37 14 39 -12z m-84 -12 c-2 -5 -10 -8 -18
-8 -8 0 -16 3 -18 8 -3 4 5 7 18 7 13 0 21 -3 18 -7z m-40 -15 c4 -3 2 -11 -3
-18 -7 -8 -2 -16 18 -25 16 -7 22 -14 14 -17 -7 -3 -18 0 -26 6 -9 7 -16 7
-24 -1 -7 -7 -12 -8 -12 -4 0 5 -7 3 -16 -4 -13 -11 -19 -10 -37 10 -14 15
-15 19 -4 10 17 -12 18 -11 14 11 -2 13 -2 18 0 12 3 -7 8 -13 13 -13 5 0 10
6 13 13 2 6 2 2 0 -10 -4 -29 -2 -29 28 4 18 20 20 25 7 20 -10 -4 -18 -2 -18
3 0 11 23 13 33 3z m-138 -42 c3 -5 2 -12 -3 -15 -5 -3 -9 1 -9 9 0 17 3 19
12 6z m-65 -102 c0 -9 -31 -21 -38 -14 -3 3 0 5 7 5 7 0 10 4 7 8 -3 5 1 9 9
9 8 0 15 -4 15 -8z m56 -13 c2 -17 -22 -15 -39 4 -8 9 -8 11 0 6 6 -3 15 -1
18 5 8 12 18 5 21 -15z m-79 -38 c-3 -8 -6 -5 -6 6 -1 11 2 17 5 13 3 -3 4
-12 1 -19z m-12 -109 c-4 -5 0 -9 8 -9 9 0 14 -11 14 -32 0 -18 2 -37 4 -43 2
-5 1 -11 -4 -12 -4 -2 -21 -10 -38 -19 -17 -8 -33 -13 -36 -11 -2 3 5 8 16 12
26 8 27 21 4 34 -17 10 -17 10 0 11 12 0 16 6 14 23 -2 12 -2 16 0 10 3 -7 9
-13 15 -13 6 0 7 8 3 18 -3 9 -7 21 -8 27 -1 5 -9 16 -17 23 -13 11 -11 11 8
2 12 -6 20 -15 17 -21z m-35 -179 c0 -5 -2 -10 -4 -10 -3 0 -8 5 -11 10 -3 6
-1 10 4 10 6 0 11 -4 11 -10z m0 -40 c0 -5 -2 -10 -4 -10 -3 0 -8 5 -11 10 -3
6 -1 10 4 10 6 0 11 -4 11 -10z m11 -273 c-10 -9 -11 -8 -5 6 3 10 9 15 12 12
3 -3 0 -11 -7 -18z m9 -117 c0 -5 -2 -10 -4 -10 -3 0 -8 5 -11 10 -3 6 -1 10
4 10 6 0 11 -4 11 -10z m-3 -82 c-3 -7 -5 -2 -5 12 0 14 2 19 5 13 2 -7 2 -19
0 -25z m40 -73 c0 -8 -4 -12 -9 -9 -4 3 -8 1 -8 -5 0 -5 5 -11 11 -13 6 -2 -1
-9 -16 -16 -14 -7 -24 -8 -21 -3 4 5 0 12 -6 15 -7 3 -2 3 12 0 20 -5 23 -4
13 7 -10 10 -9 15 5 25 9 8 17 14 18 14 0 0 1 -7 1 -15z m-39 -150 c-3 -3 -9
2 -12 12 -6 14 -5 15 5 6 7 -7 10 -15 7 -18z m34 -4 c8 11 9 11 5 -2 -3 -9 0
-22 6 -28 6 -6 8 -12 4 -12 -18 -3 -23 -6 -44 -17 -16 -9 -24 -9 -29 0 -4 6
-3 8 3 5 14 -9 55 22 47 35 -4 7 -10 5 -16 -6 -5 -9 -14 -16 -19 -16 -6 0 -3
7 5 16 9 8 16 21 17 27 0 7 3 7 6 -2 5 -11 7 -11 15 0z m-1 -95 c-10 -12 -9
-16 6 -24 10 -6 15 -13 12 -17 -4 -3 -13 1 -22 9 -18 19 -30 9 -17 -14 8 -15
6 -59 -2 -65 -2 -1 -11 7 -21 17 -17 17 -17 19 -1 16 9 -2 19 2 21 9 3 7 -5
10 -21 9 -14 -2 -23 1 -20 6 3 5 13 7 21 4 10 -4 13 -2 10 8 -3 8 1 20 9 27
20 16 10 23 -15 10 -14 -8 -22 -8 -27 1 -4 6 -3 8 3 5 6 -4 21 2 33 13 27 23
52 11 31 -14z m-46 -106 c3 -5 2 -10 -4 -10 -5 0 -13 5 -16 10 -3 6 -2 10 4
10 5 0 13 -4 16 -10z m-25 -20 c0 -5 -5 -10 -11 -10 -5 0 -7 5 -4 10 3 6 8 10
11 10 2 0 4 -4 4 -10z m44 -30 c-6 -6 -15 -6 -24 0 -13 9 -13 11 0 20 18 11
39 -5 24 -20z m-32 -22 c-9 -9 -8 -14 3 -22 10 -8 12 -16 5 -26 -7 -11 -10
-11 -10 -2 0 10 -5 10 -21 2 -11 -7 -23 -9 -26 -7 -2 3 5 8 17 12 11 4 20 12
19 18 -3 25 1 37 13 37 9 0 9 -3 0 -12z m-32 -23 c0 -2 -10 -9 -22 -15 -22
-11 -22 -10 -4 4 21 17 26 19 26 11z m-22 -60 c-3 -3 -9 2 -12 12 -6 14 -5 15
5 6 7 -7 10 -15 7 -18z m-28 -5 c-8 -5 -19 -10 -25 -10 -5 0 -3 5 5 10 8 5 20
10 25 10 6 0 3 -5 -5 -10z m-42 -55 c-3 -3 -9 2 -12 12 -6 14 -5 15 5 6 7 -7
10 -15 7 -18z m72 -24 c0 -5 -7 -11 -14 -14 -10 -4 -13 -1 -9 9 6 15 23 19 23
5z m-165 -81 c3 -5 1 -10 -4 -10 -6 0 -11 5 -11 10 0 6 2 10 4 10 3 0 8 -4 11
-10z m-241 -35 c-4 -8 -11 -15 -16 -15 -6 0 -5 6 2 15 7 8 14 15 16 15 2 0 1
-7 -2 -15z m50 0 c3 -8 1 -15 -4 -15 -6 0 -10 7 -10 15 0 8 2 15 4 15 2 0 6
-7 10 -15z m38 3 c-9 -9 -9 -15 1 -27 11 -14 10 -14 -6 -2 -13 10 -15 17 -6
27 6 8 14 14 17 14 3 0 1 -5 -6 -12z m33 -17 c4 -22 -10 -30 -18 -8 -4 13 3
40 10 34 2 -2 5 -14 8 -26z m-189 4 c-11 -8 -25 -15 -30 -15 -6 1 0 7 14 15
32 19 40 18 16 0z m-205 -19 c-7 -8 -10 -21 -6 -28 4 -7 0 -5 -8 4 -10 13 -16
15 -25 6 -9 -9 -14 -9 -22 0 -6 6 -7 10 -4 7 4 -2 16 1 28 7 11 7 24 11 29 10
4 -1 7 3 7 10 0 6 3 8 6 5 4 -4 1 -13 -5 -21z m74 14 c-3 -5 -12 -10 -18 -10
-7 0 -6 4 3 10 19 12 23 12 15 0z m29 -4 c-3 -8 -13 -17 -22 -21 -13 -5 -13
-2 3 15 21 24 26 25 19 6z m146 -6 c9 -5 19 -5 27 1 7 6 18 7 27 2 13 -7 13
-10 -4 -21 -13 -8 -20 -9 -20 -1 0 6 -5 7 -12 2 -7 -4 -24 -8 -36 -9 -13 0
-28 -7 -32 -15 -7 -11 -14 -9 -33 9 -21 20 -25 21 -31 7 -3 -9 -10 -14 -16
-10 -5 3 -18 1 -28 -4 -20 -10 -42 2 -42 24 0 5 4 4 9 -3 5 -9 17 -11 34 -7
15 4 25 10 23 14 -2 3 7 7 20 7 13 1 24 -2 24 -6 0 -11 20 -7 45 8 24 14 26
14 45 2z"/>
<path d="M5052 3733 c-10 -4 -9 -9 4 -24 12 -14 13 -19 4 -19 -7 0 -11 -3 -7
-6 3 -3 11 -3 17 1 8 5 8 10 0 20 -7 8 -9 19 -5 25 7 11 6 11 -13 3z"/>
<path d="M5060 2455 c-14 -17 -8 -28 15 -31 11 -2 12 2 5 16 -5 9 -6 20 -3 24
3 3 4 6 1 6 -3 0 -11 -7 -18 -15z"/>
<path d="M4494 1005 c-12 -8 -25 -11 -29 -7 -5 4 -5 1 -1 -5 5 -10 12 -9 30 2
12 8 26 12 29 8 4 -3 7 -1 7 5 0 16 -11 15 -36 -3z"/>
<path d="M1775 5040 c-3 -5 -1 -10 4 -10 6 0 11 5 11 10 0 6 -2 10 -4 10 -3 0
-8 -4 -11 -10z"/>
<path d="M1836 5008 c5 -8 2 -9 -10 -5 -9 4 -15 3 -11 -2 3 -6 14 -9 25 -8 14
1 16 4 8 14 -13 16 -22 17 -12 1z"/>
<path d="M4853 4975 c0 -8 4 -12 9 -9 5 3 6 10 3 15 -9 13 -12 11 -12 -6z"/>
<path d="M1873 4965 c0 -8 4 -12 9 -9 5 3 6 10 3 15 -9 13 -12 11 -12 -6z"/>
<path d="M4864 4942 c4 -3 14 -7 22 -8 9 -1 13 0 10 4 -4 3 -14 7 -22 8 -9 1
-13 0 -10 -4z"/>
<path d="M4912 4945 c4 -4 3 -14 -3 -21 -7 -9 -6 -14 3 -20 7 -4 10 -4 6 1 -4
4 -3 14 3 21 7 9 6 14 -3 20 -7 4 -10 4 -6 -1z"/>
<path d="M1850 4921 c0 -11 4 -22 9 -25 4 -3 6 6 3 19 -5 30 -12 33 -12 6z"/>
<path d="M1812 4887 c-26 -27 -27 -34 -7 -34 8 0 15 4 15 9 0 4 5 7 11 6 6 -2
14 3 16 10 3 6 0 12 -7 12 -6 0 -8 5 -5 10 11 17 -1 11 -23 -13z m22 -5 c3 -5
-1 -9 -9 -9 -8 0 -12 4 -9 9 3 4 7 8 9 8 2 0 6 -4 9 -8z"/>
<path d="M4936 4898 c3 -5 10 -6 15 -3 13 9 11 12 -6 12 -8 0 -12 -4 -9 -9z"/>
<path d="M4930 4874 c7 -11 19 -21 26 -21 7 0 11 4 8 9 -3 4 0 8 5 8 6 0 11 5
11 11 0 8 -5 8 -15 -1 -12 -10 -18 -10 -32 1 -15 13 -15 12 -3 -7z"/>
<path d="M1850 4850 c-9 -6 -10 -10 -3 -10 6 0 15 5 18 10 8 12 4 12 -15 0z"/>
<path d="M1855 4820 c3 -5 8 -10 11 -10 2 0 4 5 4 10 0 6 -5 10 -11 10 -5 0
-7 -4 -4 -10z"/>
<path d="M5015 4820 c3 -5 8 -10 11 -10 2 0 4 5 4 10 0 6 -5 10 -11 10 -5 0
-7 -4 -4 -10z"/>
<path d="M4982 4812 c-10 -7 -8 -13 7 -26 22 -20 36 -7 18 17 -7 10 -17 13
-25 9z m22 -18 c3 -8 2 -12 -4 -9 -6 3 -10 10 -10 16 0 14 7 11 14 -7z"/>
<path d="M5055 4740 c-3 -5 -1 -10 4 -10 6 0 11 5 11 10 0 6 -2 10 -4 10 -3 0
-8 -4 -11 -10z"/>
<path d="M1864 4718 l-19 -23 23 19 c21 18 27 26 19 26 -2 0 -12 -10 -23 -22z"/>
<path d="M5040 4700 c-13 -8 -13 -10 2 -10 9 0 20 5 23 10 8 13 -5 13 -25 0z"/>
<path d="M5076 4695 c-9 -26 -7 -32 5 -12 6 10 9 21 6 23 -2 3 -7 -2 -11 -11z"/>
<path d="M4196 4653 c2 -7 -1 -13 -5 -13 -5 0 -12 6 -14 13 -4 9 -6 9 -6 0 -1
-16 17 -26 32 -16 6 4 21 6 32 4 19 -3 19 -2 2 16 -14 15 -19 15 -26 4 -5 -7
-11 -9 -13 -5 -3 5 -3 3 -2 -3z"/>
<path d="M5093 4655 c0 -8 4 -12 9 -9 5 3 6 10 3 15 -9 13 -12 11 -12 -6z"/>
<path d="M1820 4640 c-9 -6 -10 -10 -3 -10 6 0 15 5 18 10 8 12 4 12 -15 0z"/>
<path d="M4338 4628 c8 -8 8 -15 1 -24 -7 -8 -6 -14 2 -20 7 -4 9 -3 5 4 -3 6
-2 13 4 17 5 3 10 -2 11 -12 0 -14 2 -14 9 5 12 29 18 28 14 -4 -1 -14 0 -23
3 -20 4 3 8 18 9 32 2 18 -1 24 -11 21 -7 -3 -16 -3 -19 1 -4 3 -14 7 -23 8
-11 2 -13 0 -5 -8z"/>
<path d="M5113 4615 c0 -8 4 -12 9 -9 5 3 6 10 3 15 -9 13 -12 11 -12 -6z"/>
<path d="M4195 4600 c3 -5 8 -10 11 -10 2 0 4 5 4 10 0 6 -5 10 -11 10 -5 0
-7 -4 -4 -10z"/>
<path d="M1756 4578 c3 -4 11 -5 19 -1 21 7 19 12 -4 10 -11 0 -18 -5 -15 -9z"/>
<path d="M4300 4586 c0 -2 8 -10 18 -17 15 -13 16 -12 3 4 -13 16 -21 21 -21
13z"/>
<path d="M4274 4569 c-3 -6 -2 -15 3 -20 5 -5 9 -1 9 11 0 23 -2 24 -12 9z"/>
<path d="M1539 4553 c-12 -16 -12 -17 2 -6 9 7 19 10 22 6 4 -3 7 -1 7 5 0 17
-16 15 -31 -5z"/>
<path d="M4470 4559 c0 -5 5 -7 10 -4 6 3 10 8 10 11 0 2 -4 4 -10 4 -5 0 -10
-5 -10 -11z"/>
<path d="M5116 4553 c-4 -9 -3 -20 1 -24 4 -4 9 3 9 17 2 28 -1 31 -10 7z"/>
<path d="M1490 4499 c0 -5 5 -7 10 -4 6 3 10 8 10 11 0 2 -4 4 -10 4 -5 0 -10
-5 -10 -11z"/>
<path d="M5120 4480 c-9 -6 -10 -10 -3 -10 6 0 15 5 18 10 8 12 4 12 -15 0z"/>
<path d="M1430 4371 c0 -5 7 -12 16 -15 14 -5 15 -4 4 9 -14 17 -20 19 -20 6z"/>
<path d="M1376 4354 c-6 -16 12 -49 22 -39 3 3 12 -1 20 -8 13 -10 14 -9 7 2
-6 11 -4 13 8 8 9 -3 19 -2 21 2 3 5 -5 7 -17 6 -32 -2 -57 13 -51 30 4 8 4
15 1 15 -3 0 -8 -7 -11 -16z"/>
<path d="M5074 4355 c24 -18 39 -19 34 -3 -2 6 -15 13 -29 14 -23 4 -23 3 -5
-11z"/>
<path d="M5110 4321 c0 -6 4 -13 10 -16 6 -3 7 1 4 9 -7 18 -14 21 -14 7z"/>
<path d="M5074 4195 c24 -18 39 -19 34 -3 -2 6 -15 13 -29 14 -23 4 -23 3 -5
-11z"/>
<path d="M1455 4100 c-3 -5 -1 -10 4 -10 6 0 11 5 11 10 0 6 -2 10 -4 10 -3 0
-8 -4 -11 -10z"/>
<path d="M5110 4040 c0 -5 5 -10 10 -10 6 0 10 5 10 10 0 6 -4 10 -10 10 -5 0
-10 -4 -10 -10z"/>
<path d="M2110 4005 c0 -7 -42 -10 -120 -10 -135 2 -132 4 -105 -73 9 -24 13
-48 10 -53 -4 -5 -1 -9 6 -9 7 0 9 -10 7 -25 -3 -13 -2 -22 3 -20 6 4 35 -67
43 -108 3 -11 9 -28 37 -99 6 -15 9 -35 5 -43 -3 -9 -2 -13 4 -10 9 6 12 2 14
-27 1 -7 5 -16 9 -19 4 -3 9 -19 10 -35 1 -16 5 -31 8 -34 14 -12 61 -161 55
-175 -4 -11 -2 -14 6 -9 8 5 9 2 5 -9 -3 -10 -2 -17 4 -17 6 0 7 -4 4 -10 -3
-5 -2 -10 3 -10 5 0 9 -7 10 -15 1 -8 3 -22 4 -30 1 -8 4 -15 8 -15 11 0 32
-79 24 -92 -4 -7 -3 -8 4 -4 7 4 13 0 14 -11 2 -32 3 -38 10 -49 12 -18 36
-94 28 -89 -3 2 4 -19 18 -47 13 -28 25 -68 26 -88 0 -21 4 -36 8 -34 10 6 18
-10 20 -40 1 -14 6 -26 11 -26 5 0 7 -9 4 -20 -3 -11 -1 -18 3 -15 7 5 24 -42
25 -70 0 -5 3 -12 6 -15 4 -3 9 -16 10 -30 2 -14 7 -27 10 -30 4 -3 9 -16 10
-30 2 -14 7 -28 11 -31 5 -3 9 -17 10 -32 1 -15 5 -27 8 -27 7 0 35 -92 32
-104 -2 -5 2 -12 8 -16 6 -4 12 -18 13 -31 0 -13 5 -27 9 -30 4 -3 9 -17 10
-32 1 -15 6 -27 9 -27 6 0 21 -47 23 -72 1 -3 4 -10 8 -14 4 -4 3 -13 -4 -21
-9 -11 -8 -13 2 -11 13 3 33 -49 24 -64 -3 -4 0 -8 7 -8 7 0 9 -10 7 -25 -3
-13 -2 -22 3 -20 14 9 21 -16 8 -31 -10 -12 -9 -13 5 -8 11 4 16 0 18 -12 2
-33 3 -39 10 -50 14 -21 37 -98 32 -106 -3 -4 0 -8 5 -8 6 0 11 -5 11 -11 0
-5 -4 -7 -10 -4 -16 10 -11 -1 7 -16 9 -8 14 -9 10 -3 -4 7 9 11 39 10 29 0
39 -3 30 -8 -9 -5 -13 -15 -10 -23 4 -8 11 -12 16 -9 6 4 5 10 -3 16 -10 6 -7
7 10 3 15 -5 21 -3 17 3 -3 6 -2 13 3 16 5 4 12 2 16 -4 4 -7 13 -7 26 1 12 6
23 8 27 5 3 -3 0 -6 -7 -6 -7 0 -9 -5 -6 -11 5 -7 14 -4 28 8 18 14 17 12 -2
-10 -14 -15 -20 -27 -14 -27 6 0 13 -10 16 -22 4 -12 9 -19 12 -16 4 3 2 15
-4 26 -8 15 -6 24 13 41 22 20 25 21 33 6 6 -10 16 -13 26 -9 9 3 14 10 11 15
-3 5 6 4 20 -3 14 -6 26 -15 26 -20 0 -5 4 -7 10 -3 5 3 7 13 4 23 -5 14 -4
14 4 2 13 -17 -4 -44 -21 -33 -6 4 -7 1 -2 -7 5 -8 2 -18 -9 -25 -15 -11 -15
-13 -1 -19 9 -3 13 -2 10 4 -3 6 1 13 9 16 9 3 13 10 10 15 -8 14 2 11 42 -13
21 -12 34 -17 30 -10 -7 12 4 16 32 13 19 -3 14 7 -9 20 -15 8 -19 8 -15 0 4
-6 5 -11 2 -11 -3 0 -10 9 -16 20 -8 16 -8 18 4 14 8 -3 16 2 19 13 4 17 5 17
6 0 0 -10 5 -15 11 -12 6 3 7 -1 4 -9 -3 -9 -1 -16 5 -16 11 0 15 12 12 40 -1
11 1 11 9 -2 14 -23 27 -23 33 -1 4 17 5 17 6 0 0 -10 5 -16 10 -12 6 3 8 -5
5 -19 -4 -23 -1 -25 26 -21 18 2 30 -1 30 -8 0 -7 5 -4 11 6 8 14 14 16 25 6
7 -6 12 -15 9 -19 -3 -5 -1 -11 4 -15 6 -3 8 4 6 16 -6 30 23 82 41 75 10 -4
12 -2 8 6 -5 7 -2 9 9 5 12 -4 14 -2 10 11 -6 15 -5 15 10 3 9 -7 17 -9 17 -5
0 12 -40 37 -48 30 -3 -3 0 -6 7 -6 8 0 7 -5 -4 -16 -12 -13 -19 -14 -28 -5
-15 15 -32 14 -19 -1 5 -8 6 -22 1 -33 -5 -13 -8 -15 -8 -5 -1 12 -3 12 -10 2
-7 -11 -9 -11 -14 2 -4 9 -3 15 1 15 19 -3 33 2 27 11 -3 5 -13 7 -23 3 -11
-3 -8 1 6 12 17 13 26 14 37 5 8 -7 15 -7 19 -1 4 5 -3 12 -13 16 -13 4 -18
11 -14 22 5 12 3 14 -7 8 -9 -5 -11 -4 -6 4 9 14 26 5 26 -15 0 -16 16 -19 25
-4 4 6 16 4 33 -6 l27 -16 -25 21 c-22 20 -22 22 -5 17 15 -5 21 -1 22 13 1
11 -5 22 -14 25 -13 5 -14 4 -3 -9 10 -12 10 -15 -4 -15 -11 0 -14 5 -10 12 4
7 3 8 -5 4 -6 -4 -9 -11 -6 -16 3 -4 -2 -10 -10 -13 -10 -4 -12 -1 -8 11 9 23
34 41 54 37 8 -2 16 2 16 9 0 6 -13 12 -29 13 -15 0 -26 -2 -24 -6 3 -4 -4
-13 -16 -20 -11 -7 -17 -8 -13 -2 3 6 1 11 -4 11 -6 0 -11 5 -11 11 0 8 4 8
14 0 11 -9 15 -8 20 5 4 9 13 14 21 10 18 -6 19 -1 5 25 -15 27 -4 40 24 29
13 -5 29 -4 37 1 8 5 10 9 4 9 -5 0 -3 5 5 10 9 6 10 10 3 10 -7 0 -17 -8 -22
-17 -6 -11 -11 -13 -11 -5 0 7 -5 10 -11 6 -7 -4 -7 1 1 16 9 16 9 25 1 33 -8
8 -11 5 -11 -10 0 -12 -4 -24 -9 -27 -5 -4 -6 5 -2 21 4 16 15 27 29 30 25 3
26 0 11 -28 -9 -18 -8 -19 9 -10 11 6 22 7 26 4 3 -3 6 -1 6 5 0 5 -6 12 -12
15 -9 3 -7 10 6 26 20 22 20 22 0 15 -18 -7 -18 -6 1 14 11 12 29 31 40 43
l20 22 -23 -12 c-12 -7 -28 -9 -34 -5 -7 5 -8 2 -3 -7 4 -8 -2 -4 -14 8 -24
25 -29 42 -6 23 8 -6 20 -8 26 -4 8 5 10 3 4 -7 -6 -11 -5 -11 5 -2 11 10 10
16 -3 36 -16 24 -14 33 14 54 13 10 16 10 16 -2 0 -8 -5 -11 -10 -8 -6 4 -7 1
-2 -7 5 -8 4 -11 -3 -6 -13 8 -10 -12 6 -39 10 -18 11 -18 12 -2 0 9 -5 17
-11 17 -5 0 -7 5 -4 10 5 8 11 7 21 -1 10 -8 14 -8 14 0 0 6 -4 11 -9 11 -11
0 -9 19 3 38 5 8 3 19 -3 25 -9 9 -11 7 -6 -8 5 -13 4 -16 -2 -8 -7 9 -15 6
-35 -12 -23 -21 -27 -22 -33 -7 -3 9 -3 13 1 10 4 -4 15 -3 26 3 15 8 17 13 7
25 -8 10 -9 14 0 14 9 0 9 6 1 23 -10 20 -10 21 3 4 10 -12 17 -14 22 -7 3 5
11 7 17 4 6 -4 9 -1 6 7 -3 8 -1 22 4 32 6 13 4 19 -8 24 -14 5 -13 8 7 19 13
7 22 14 19 14 -31 7 -40 7 -40 -3 0 -5 -3 -8 -6 -4 -3 3 -1 14 5 24 7 12 10
14 11 4 0 -8 3 -11 7 -8 3 4 12 2 19 -4 7 -6 25 -12 39 -13 21 -3 23 -1 13 11
-6 8 -16 12 -23 10 -6 -3 -18 1 -27 7 -14 11 -13 14 13 35 16 13 29 28 29 34
0 5 -8 3 -18 -6 -10 -10 -27 -17 -38 -16 -19 1 -17 2 25 15 11 3 11 7 1 19 -9
10 -9 15 -1 15 6 0 11 -5 11 -11 0 -5 5 -7 10 -4 6 4 7 11 4 17 -4 6 1 6 14
-1 11 -6 27 -11 34 -10 7 0 3 4 -10 10 -13 5 -20 13 -17 19 8 13 -1 13 -25 0
-16 -8 -18 -8 -14 5 3 8 11 12 17 8 6 -4 8 2 5 15 -4 13 -2 20 3 16 13 -8 40
16 33 28 -4 6 -10 5 -15 -3 -4 -7 -11 -10 -16 -6 -10 10 18 28 31 20 5 -4 7 1
3 10 -3 8 1 21 9 27 8 7 14 17 14 23 0 7 -4 7 -12 -1 -7 -7 -19 -12 -27 -12
-10 0 -6 5 9 13 24 12 38 57 19 57 -5 0 -9 5 -9 11 0 8 4 8 15 -1 8 -6 19 -9
26 -5 8 6 8 2 0 -14 -7 -11 -8 -21 -4 -21 4 0 1 -5 -7 -10 -12 -8 -12 -10 -1
-10 10 0 11 -3 2 -13 -6 -8 -7 -18 -3 -22 4 -5 2 -5 -5 -1 -8 4 -11 0 -8 -14
2 -11 0 -20 -4 -20 -4 0 -8 -7 -8 -15 0 -8 4 -15 9 -15 4 0 8 8 8 18 0 15 2
15 11 2 9 -13 10 -12 5 3 -3 11 0 20 9 24 14 5 13 7 -1 18 -15 11 -15 13 -2
21 8 5 21 20 28 33 10 19 10 25 -1 32 -10 6 -10 10 0 23 7 9 16 14 20 12 4 -3
8 5 8 16 1 12 8 25 15 31 10 6 9 8 -4 4 -18 -6 -30 15 -21 38 3 9 2 15 -3 14
-22 -4 -32 3 -37 24 l-6 22 18 -23 c16 -22 18 -23 32 -6 12 16 12 17 -2 12
-12 -5 -15 -1 -11 18 2 13 11 29 20 36 13 11 14 10 4 -9 -14 -25 -15 -36 -4
-29 10 6 9 -54 0 -70 -4 -6 -1 -11 7 -11 8 0 12 8 10 20 -3 13 0 17 10 13 16
-6 16 15 1 26 -5 3 -10 16 -11 27 -1 17 2 20 18 15 14 -4 17 -3 12 7 -6 8 -4
11 7 7 8 -4 15 -1 15 6 0 6 -8 12 -18 12 -10 0 -15 -4 -13 -8 9 -14 -7 -9 -23
8 -15 14 -17 14 -25 0 -5 -9 -13 -16 -18 -16 -6 0 -2 9 7 19 12 15 21 17 35
10 12 -7 18 -6 18 1 0 6 4 9 9 6 5 -4 16 -3 25 0 13 5 14 9 5 20 -9 11 -8 19
5 33 11 13 14 21 7 26 -6 3 -11 11 -11 17 0 6 7 5 17 -3 11 -10 14 -10 9 -1
-4 6 -2 12 3 12 6 0 11 5 11 11 0 8 -5 8 -15 -1 -8 -7 -15 -8 -15 -3 0 5 -7
10 -15 10 -10 0 -13 -6 -9 -19 3 -11 0 -18 -8 -18 -10 0 -9 -3 2 -10 8 -5 11
-10 5 -10 -5 0 -16 4 -23 9 -11 7 -10 9 3 14 13 6 14 11 5 28 -13 24 -6 36 12
22 16 -11 27 -11 52 3 16 10 16 12 2 17 -9 4 -16 12 -16 18 0 8 4 8 15 -1 9
-7 18 -10 21 -7 3 3 -9 13 -28 23 -18 9 -35 18 -36 20 -2 1 11 17 30 34 28 26
30 30 11 25 -14 -4 -23 -2 -23 5 0 6 5 8 10 5 6 -3 10 -1 10 6 0 7 3 9 7 6 3
-4 11 -2 18 3 8 7 12 5 12 -5 0 -8 -4 -12 -8 -9 -4 2 -6 -5 -4 -16 3 -13 0
-18 -7 -14 -7 4 -8 2 -4 -5 4 -6 11 -9 16 -6 4 3 10 -2 13 -9 4 -10 -1 -14
-14 -13 -10 1 -19 7 -19 15 0 7 -5 10 -10 7 -8 -5 -7 -12 2 -23 12 -15 11 -16
-4 -3 -12 9 -18 10 -18 2 0 -6 5 -12 10 -12 6 -1 16 -2 23 -3 6 -1 20 2 30 7
17 8 17 10 3 32 -14 21 -14 24 2 30 13 5 14 8 3 14 -7 5 -13 12 -14 17 -1 5
-10 8 -20 7 -10 -2 -15 2 -12 7 3 6 12 10 18 10 7 0 13 9 14 20 1 11 -2 18 -8
15 -5 -4 -9 -2 -9 4 0 5 5 13 10 16 6 3 10 1 10 -5 0 -6 4 -9 8 -6 5 3 9 -1 9
-9 0 -8 -3 -15 -7 -15 -12 0 -7 -29 6 -34 8 -3 10 3 7 17 -4 18 -3 19 6 7 9
-13 11 -13 11 3 0 9 -5 17 -11 17 -5 0 -8 4 -4 9 3 5 1 12 -4 15 -5 4 -8 14
-7 24 2 9 -1 20 -7 23 -5 4 0 10 12 14 11 3 21 11 21 16 0 12 -17 12 -25 -1
-3 -5 -12 -10 -18 -9 -9 0 -8 2 1 6 6 2 10 9 6 14 -3 5 -2 9 3 8 21 -4 34 2
27 13 -4 7 -3 8 4 4 18 -11 14 5 -8 42 -12 19 -15 30 -8 26 7 -5 21 -9 30 -9
23 -2 35 -14 23 -23 -10 -7 -12 -14 -21 -57 -2 -11 -11 -26 -21 -32 -9 -7 -11
-13 -5 -13 7 0 12 -5 12 -11 0 -5 -4 -8 -8 -5 -5 3 -9 -1 -9 -9 0 -11 3 -12
14 -3 8 6 12 17 9 24 -3 7 -1 16 4 19 4 3 10 -1 13 -7 2 -8 8 -9 13 -4 5 5 4
11 -3 13 -7 3 -13 9 -13 14 0 6 6 7 13 3 8 -5 8 -2 -2 9 -15 19 -2 24 16 6 8
-8 13 -8 18 0 4 7 1 10 -7 9 -8 -2 -13 9 -13 32 -1 47 4 55 22 33 8 -10 12
-13 9 -6 -4 6 0 14 6 16 8 3 6 6 -4 6 -10 1 -18 6 -18 12 0 5 4 8 8 5 5 -3 9
1 10 9 1 8 3 22 4 30 1 10 8 14 22 10 19 -5 19 -4 -1 6 -13 7 -23 16 -23 21 0
11 14 10 27 -3 8 -8 13 -7 18 2 5 7 4 10 -3 5 -20 -12 -25 17 -6 32 16 12 16
14 2 9 -25 -9 -40 23 -22 47 7 11 17 16 21 13 3 -4 -2 -13 -12 -21 -15 -11
-16 -14 -4 -21 8 -5 11 -5 8 -1 -4 4 4 19 16 32 14 15 21 32 18 41 -4 11 -2
14 5 9 8 -5 10 -1 5 10 -5 12 -3 15 6 9 10 -6 11 -3 3 11 -11 23 -5 47 11 37
7 -3 8 -2 4 3 -12 13 -68 12 -63 -2 2 -6 1 -17 -4 -23 -5 -9 -7 -4 -7 13 0 15
3 29 8 32 5 3 9 10 9 15 0 6 -4 7 -10 4 -5 -3 -10 -1 -10 5 0 7 6 10 13 7 6
-2 11 -11 11 -20 -1 -9 6 -15 17 -14 11 1 19 5 19 10 0 4 6 5 13 0 18 -11 38
-13 31 -2 -3 5 -9 7 -14 4 -5 -3 -11 -1 -15 4 -3 6 -12 8 -19 5 -7 -3 -16 2
-20 12 -5 14 -4 15 9 4 13 -11 15 -10 12 8 -4 25 -17 42 -17 22 0 -10 -3 -10
-14 -1 -15 13 -13 50 6 85 6 12 12 23 12 26 1 3 4 4 9 2 4 -1 7 2 7 7 0 12
-36 18 -113 17 -37 -1 -67 2 -67 7 0 4 -4 6 -8 3 -20 -12 -62 -14 -62 -3 0 8
-3 8 -8 2 -9 -14 -82 -13 -82 0 0 7 -3 7 -8 0 -9 -13 -115 -13 -124 0 -5 7 -8
6 -8 -1 0 -6 -26 -10 -70 -9 -40 1 -74 -3 -79 -9 -5 -6 -14 -31 -21 -56 -7
-25 -15 -49 -18 -55 -7 -10 -8 -16 -10 -48 -1 -11 -7 -15 -14 -11 -6 4 -8 3
-4 -4 6 -10 -21 -113 -91 -342 -19 -63 -41 -135 -48 -160 -8 -25 -19 -63 -26
-85 -15 -48 -14 -43 -24 -80 -4 -16 -10 -34 -13 -40 -4 -5 -7 -16 -8 -25 -1
-8 -10 -40 -19 -70 -9 -30 -19 -65 -22 -77 -3 -13 -10 -20 -16 -16 -6 4 -7 1
-3 -6 9 -14 -25 -141 -37 -141 -4 0 -6 -4 -3 -8 8 -14 -26 -116 -43 -129 -22
-17 -29 -16 -27 5 0 9 -5 16 -11 15 -7 -2 -13 1 -13 6 0 5 7 11 15 13 10 2 7
7 -10 15 -14 6 -23 8 -21 4 3 -4 -5 -8 -17 -8 -12 -1 -17 1 -12 5 9 7 16 28
19 62 0 8 7 21 14 28 6 7 12 19 12 25 0 14 -34 -33 -36 -49 -1 -7 -7 -20 -14
-31 -10 -15 -11 -15 -6 -1 3 10 1 20 -4 23 -6 4 -10 12 -9 18 0 9 2 9 6 0 2
-7 10 -13 16 -13 5 0 8 3 4 6 -9 9 21 64 35 64 6 0 8 3 5 6 -4 4 -13 1 -22 -6
-9 -8 -15 -9 -15 -2 0 6 8 16 18 21 10 6 12 11 4 11 -7 0 -10 4 -7 10 3 5 0 7
-8 4 -9 -3 -13 2 -13 17 1 23 -29 35 -41 17 -3 -7 -1 -8 5 -4 7 4 10 -1 7 -14
-2 -11 0 -18 5 -15 4 3 7 -6 6 -20 -2 -14 1 -22 7 -18 6 3 7 1 3 -5 -4 -7 -2
-12 4 -12 18 0 6 -23 -14 -26 -14 -2 -15 0 -5 12 6 8 7 14 3 14 -5 0 -15 9
-22 21 -8 12 -9 18 -3 14 7 -4 10 2 8 15 -2 12 -9 25 -16 29 -9 6 -1 15 23 29
28 16 36 18 36 7 0 -7 4 -17 10 -20 6 -4 7 1 3 12 -11 32 -14 34 -29 22 -12
-10 -18 -8 -30 7 -9 10 -12 13 -9 6 6 -12 3 -12 -15 -2 -18 10 -20 14 -9 21 9
5 23 2 38 -7 13 -9 21 -11 17 -6 -3 6 -3 12 1 15 5 2 3 2 -4 1 -6 -2 -14 3
-17 11 -3 10 0 12 12 9 9 -3 7 1 -6 8 -12 8 -19 18 -15 23 4 5 1 5 -7 -1 -11
-8 -19 -6 -32 8 -10 10 -13 18 -7 18 5 0 7 5 4 10 -4 6 -10 8 -14 6 -4 -3 -8
4 -8 15 -1 10 3 19 8 19 6 0 8 -4 4 -9 -3 -5 -1 -13 5 -16 6 -4 10 -3 9 2 -4
22 2 44 11 38 5 -3 6 -15 2 -28 -10 -27 -10 -47 1 -47 4 0 10 0 13 0 4 0 0 8
-7 17 -12 14 -12 16 2 11 9 -4 16 -1 16 8 0 7 -4 11 -9 8 -4 -3 -8 0 -8 5 0 6
6 11 13 11 6 0 4 5 -6 11 -15 9 -16 13 -6 27 11 14 11 15 -1 5 -19 -18 -35
-16 -20 2 6 8 10 20 7 27 -3 8 -6 5 -6 -6 -1 -26 -14 -12 -17 19 -2 17 1 23 9
18 7 -4 4 5 -6 20 -11 18 -13 27 -6 27 7 0 9 3 6 7 -4 3 -1 13 6 21 7 10 8 13
1 9 -14 -8 -37 16 -27 27 4 4 -1 4 -12 0 -18 -7 -18 -6 -6 9 8 10 11 20 7 24
-3 3 -6 1 -6 -6 0 -7 -5 -9 -11 -5 -8 4 -8 9 0 17 6 6 11 16 11 22 -1 12 -23
-25 -26 -43 -1 -6 2 -10 6 -7 5 3 7 -4 5 -15 -3 -13 0 -18 7 -14 7 4 8 2 4 -5
-4 -6 -12 -8 -18 -5 -7 4 -8 2 -4 -5 4 -6 11 -9 16 -6 5 3 7 -4 5 -15 -2 -12
0 -18 6 -15 5 4 8 1 7 -7 -2 -7 2 -12 8 -11 7 1 11 -10 10 -30 -2 -18 2 -38 7
-44 6 -9 5 -13 -4 -13 -11 0 -11 -2 1 -10 8 -5 11 -13 6 -17 -5 -4 -11 -2 -13
5 -3 6 -10 9 -16 6 -8 -5 -8 -2 1 7 6 7 12 17 12 22 0 4 -6 5 -12 1 -10 -6
-10 -4 0 7 17 18 15 34 -3 19 -8 -7 -15 -11 -16 -9 -10 54 -10 54 5 34 18 -23
21 -13 5 16 -6 11 -15 17 -22 12 -8 -4 -8 -2 1 9 8 10 9 19 3 22 -5 3 -12 1
-14 -4 -3 -6 -4 -5 -3 2 2 7 -1 21 -6 30 -7 14 -5 16 9 12 13 -4 12 0 -6 15
-13 12 -18 21 -12 21 6 0 11 5 11 11 0 5 -5 7 -10 4 -6 -4 -9 -1 -8 7 2 7 -3
12 -9 11 -16 -4 -17 13 -2 22 6 5 4 12 -8 21 -17 13 -17 14 2 8 20 -6 20 -5 1
10 -11 9 -15 16 -10 16 5 0 10 9 11 20 1 11 -2 18 -6 16 -4 -3 -13 0 -21 6
-12 8 -11 9 3 4 12 -4 17 -2 15 6 -3 7 -10 13 -16 13 -5 0 -14 4 -19 9 -5 5
-3 6 5 2 15 -9 11 32 -5 42 -5 4 -9 17 -8 29 1 13 -7 32 -17 43 -18 20 -18 20
2 17 22 -4 42 -26 34 -38 -2 -4 6 -4 18 -1 19 5 20 7 6 10 -10 2 -18 8 -18 13
0 6 4 7 10 4 6 -3 7 1 3 10 -5 13 -7 14 -14 3 -8 -13 -10 -10 -13 22 0 8 -5
15 -11 14 -5 0 -21 11 -34 24 -15 16 -18 23 -7 19 9 -4 16 -2 16 4 0 6 4 7 10
4 5 -3 18 -1 27 5 15 9 14 10 -7 4 -23 -6 -24 -6 -10 11 12 15 12 17 1 10 -11
-6 -13 -4 -8 8 4 10 2 14 -7 11 -7 -3 -13 -11 -13 -19 0 -8 5 -11 11 -8 6 4 7
2 3 -3 -14 -15 -31 -11 -44 11 -14 23 -17 48 -4 26 5 -8 11 -9 15 -3 3 6 -4
18 -16 26 -22 15 -20 18 11 20 21 2 25 22 6 30 -9 3 -14 2 -11 -2 2 -4 -5 -9
-16 -9 -20 -2 -20 -1 -2 12 11 8 25 15 32 15 6 0 12 4 12 10 0 5 -8 7 -17 4
-15 -5 -15 -3 1 10 11 9 16 16 11 16 -5 0 -16 -7 -25 -15 -13 -12 -20 -12 -33
-2 -9 6 -18 21 -20 32 -4 28 -34 69 -41 57 -6 -11 -24 -11 -41 -1 -10 6 -15 6
-62 -5 -14 -3 -23 0 -23 7 0 8 -3 8 -8 2 -9 -14 -82 -13 -82 0 0 7 -3 7 -8 0
-4 -5 -16 -10 -27 -10 -11 0 -23 5 -27 10 -5 7 -8 6 -8 -1 0 -13 -72 -12 -82
1 -5 7 -8 6 -8 0z m464 -117 c-3 -4 -9 -8 -15 -8 -5 0 -9 4 -9 8 0 5 7 9 15 9
8 0 12 -4 9 -9z m1460 -145 c-3 -16 -6 -36 -8 -45 -3 -21 -16 -36 -16 -20 0 7
-3 11 -7 11 -27 -4 -33 1 -21 20 10 16 15 18 27 8 12 -10 14 -9 8 6 -7 19 1
47 13 47 5 0 6 -12 4 -27z m-57 -9 c-3 -3 -12 -4 -19 -1 -8 3 -5 6 6 6 11 1
17 -2 13 -5z m-1359 -55 c-3 -8 -7 -3 -11 10 -4 17 -3 21 5 13 5 -5 8 -16 6
-23z m32 1 c0 -5 -5 -10 -11 -10 -5 0 -7 5 -4 10 3 6 8 10 11 10 2 0 4 -4 4
-10z m1324 -15 c-7 -16 -24 -21 -24 -6 0 8 7 13 27 20 1 1 0 -6 -3 -14z m-44
-35 c-6 -11 -13 -20 -16 -20 -2 0 0 9 6 20 6 11 13 20 16 20 2 0 0 -9 -6 -20z
m44 -51 c-7 -8 -12 -25 -10 -36 3 -12 -5 -31 -17 -44 -12 -13 -21 -25 -19 -26
1 -2 -1 -3 -5 -3 -5 0 -8 3 -8 8 -1 4 -6 18 -13 32 -12 22 -11 23 1 8 13 -17
15 -17 32 2 16 18 16 20 1 26 -9 3 -23 4 -31 0 -8 -3 -15 -3 -15 0 0 12 45 21
52 10 5 -7 8 -5 8 7 0 9 6 17 13 17 6 1 1 7 -13 16 l-25 15 25 -7 c20 -5 23
-4 13 7 -7 7 -13 17 -13 22 0 5 9 -1 19 -14 17 -21 17 -26 5 -40z m-34 7 c0
-2 -7 -7 -16 -10 -8 -3 -12 -2 -9 4 6 10 25 14 25 6z m-40 -106 c0 -5 -5 -10
-11 -10 -5 0 -7 5 -4 10 3 6 8 10 11 10 2 0 4 -4 4 -10z m-30 -78 c0 -5 -7 -9
-15 -9 -8 0 -12 4 -9 9 3 4 9 8 15 8 5 0 9 -4 9 -8z m-21 -96 c0 -6 -3 -5 -6
2 -2 6 -8 10 -12 8 -4 -3 -7 4 -7 15 0 19 1 19 13 3 7 -10 13 -23 12 -28z
m-1055 -24 c2 -4 1 -14 -5 -22 -5 -8 -9 -13 -10 -10 0 3 -2 13 -4 23 -3 17 10
24 19 9z m1013 -14 c-3 -8 -6 -5 -6 6 -1 11 2 17 5 13 3 -3 4 -12 1 -19z m23
-23 c0 -7 -30 -13 -34 -7 -3 4 4 9 15 9 10 1 19 0 19 -2z m-45 -85 c3 -6 -1
-7 -9 -4 -18 7 -21 14 -7 14 6 0 13 -4 16 -10z m-17 -75 c-3 -3 -9 2 -12 12
-6 14 -5 15 5 6 7 -7 10 -15 7 -18z m36 -37 c-3 -4 -11 -5 -19 -1 -17 6 -17 6
-9 27 6 15 8 15 19 -1 7 -10 11 -21 9 -25z m-962 -43 c3 3 8 0 11 -8 3 -9 -2
-13 -16 -12 -12 1 -22 6 -22 11 0 5 -4 16 -9 24 -7 10 -3 10 11 -3 11 -9 22
-15 25 -12z m893 -3 c-3 -3 -11 0 -18 7 -9 10 -8 11 6 5 10 -3 15 -9 12 -12z
m35 -47 c-16 -17 -18 -24 -8 -28 7 -2 9 -8 4 -13 -5 -5 -11 -4 -13 4 -4 9 -9
10 -17 3 -9 -8 -18 -6 -32 5 -18 15 -18 15 2 5 17 -8 25 -5 45 17 13 15 23 31
21 35 -1 5 2 5 9 2 7 -5 3 -15 -11 -30z m-67 10 c-3 -9 -8 -14 -10 -11 -3 3
-2 9 2 15 9 16 15 13 8 -4z m35 -7 c-2 -6 -10 -13 -16 -14 -7 -1 -8 0 -2 3 5
2 8 9 4 14 -3 5 0 9 6 9 7 0 10 -5 8 -12z m-893 -27 c3 -5 2 -12 -3 -15 -5 -3
-9 1 -9 9 0 17 3 19 12 6z m55 -47 c0 -8 -5 -12 -10 -9 -6 4 -8 11 -5 16 9 14
15 11 15 -7z m20 -39 c0 -12 -19 -12 -23 0 -4 9 -1 12 9 8 7 -3 14 -7 14 -8z
m728 -80 c1 -14 -2 -25 -6 -25 -7 0 -8 31 -3 48 3 8 7 -2 9 -23z m25 -22 c-4
-10 -2 -14 5 -9 19 11 24 -14 8 -39 -15 -23 -56 -29 -74 -10 -4 4 3 4 15 1 12
-4 24 -2 28 4 3 6 12 7 18 4 7 -4 9 -4 5 1 -4 4 -3 13 2 20 7 8 5 12 -5 12 -8
0 -12 -4 -9 -8 5 -9 -35 -23 -43 -15 -4 3 0 6 9 6 8 0 20 11 26 25 13 28 25
35 15 8z m-727 -80 c0 -11 5 -17 13 -15 8 2 11 -3 8 -11 -9 -24 14 -39 29 -19
8 9 14 12 14 5 0 -6 -5 -15 -10 -18 -6 -4 -7 -11 -4 -17 4 -7 2 -8 -5 -4 -8 5
-10 0 -7 -18 4 -23 3 -24 -15 -13 -10 6 -19 15 -19 20 0 4 -6 5 -12 1 -10 -6
-10 -4 0 7 6 7 12 17 12 22 0 4 -6 5 -12 1 -8 -5 -7 -1 2 10 13 16 12 20 -8
36 -20 17 -21 19 -5 23 10 3 19 5 19 6 1 0 1 -7 0 -16z m-18 -38 c-3 -3 -9 2
-12 12 -6 14 -5 15 5 6 7 -7 10 -15 7 -18z m742 -6 c-13 -24 -19 -24 -15 -1 2
9 4 21 4 25 1 5 6 5 11 2 7 -4 7 -13 0 -26z m-69 -12 c-10 -9 -11 -8 -5 6 3
10 9 15 12 12 3 -3 0 -11 -7 -18z m-35 -52 c-1 -8 -5 -17 -8 -21 -5 -4 -4 16
1 34 3 9 9 -1 7 -13z m-593 -29 c4 -10 1 -13 -8 -9 -8 3 -12 9 -9 14 7 12 11
11 17 -5z m577 -26 c0 -5 -5 -10 -11 -10 -5 0 -7 5 -4 10 3 6 8 10 11 10 2 0
4 -4 4 -10z m-60 -230 c8 -5 12 -11 10 -14 -3 -2 -14 2 -24 10 -22 15 -10 19
14 4z m-5 -30 c3 -5 2 -10 -4 -10 -5 0 -13 5 -16 10 -3 6 -2 10 4 10 5 0 13
-4 16 -10z m-40 -160 c3 -5 2 -10 -4 -10 -5 0 -13 5 -16 10 -3 6 -2 10 4 10 5
0 13 -4 16 -10z m-25 -46 c0 -2 -7 -4 -15 -4 -8 0 -15 4 -15 10 0 5 7 7 15 4
8 -4 15 -8 15 -10z m21 -39 c-10 -11 -17 -26 -15 -33 1 -7 0 -8 -2 -3 -3 5
-13 8 -22 6 -9 -1 -11 0 -4 2 8 3 11 12 7 21 -7 18 5 28 34 28 20 0 20 -1 2
-21z m-87 -71 c3 -8 2 -12 -4 -9 -6 3 -10 10 -10 16 0 14 7 11 14 -7z m-9 -43
c-3 -6 -11 -11 -16 -11 -5 0 -4 6 3 14 14 16 24 13 13 -3z m-21 -47 c3 -8 2
-12 -4 -9 -6 3 -10 10 -10 16 0 14 7 11 14 -7z m-306 -198 c-2 -3 6 -12 17
-20 26 -19 14 -31 -15 -16 -15 8 -19 15 -12 22 6 6 9 16 8 22 -2 6 -1 8 1 4 3
-4 3 -10 1 -12z m202 -6 c6 0 10 8 10 17 0 14 3 13 16 -5 8 -12 20 -20 25 -17
5 4 9 1 9 -5 0 -7 -6 -10 -14 -7 -7 3 -19 0 -25 -6 -8 -8 -11 -8 -11 1 0 7 -5
12 -11 12 -5 0 -8 -4 -5 -8 2 -4 -4 -8 -14 -8 -13 0 -16 5 -11 16 5 8 6 22 4
30 -3 10 0 9 7 -2 6 -10 15 -18 20 -18z"/>
<path d="M3990 3699 c0 -5 5 -7 10 -4 6 3 10 8 10 11 0 2 -4 4 -10 4 -5 0 -10
-5 -10 -11z"/>
<path d="M3934 3508 l-19 -23 23 19 c12 11 22 21 22 23 0 8 -8 2 -26 -19z"/>
<path d="M2958 2608 c10 -12 10 -17 1 -20 -8 -3 -7 -7 3 -16 12 -9 14 -8 13 8
-1 11 -8 26 -15 33 -12 10 -12 9 -2 -5z"/>
<path d="M3415 2000 c-3 -5 -1 -10 4 -10 6 0 11 5 11 10 0 6 -2 10 -4 10 -3 0
-8 -4 -11 -10z"/>
<path d="M2540 3943 c6 -13 15 -23 20 -23 15 0 21 18 9 26 -8 4 -9 3 -5 -4 11
-19 -5 -14 -21 6 -13 15 -13 15 -3 -5z"/>
<path d="M4031 3931 c-6 -10 -7 -21 -4 -25 3 -3 2 -6 -4 -6 -5 0 -10 -7 -10
-15 0 -9 6 -14 13 -11 8 3 16 0 20 -5 4 -6 14 -3 25 10 21 22 27 43 7 23 -17
-17 -33 -15 -18 3 6 8 10 20 7 27 -3 8 -6 6 -6 -5 -1 -10 -5 -16 -11 -12 -5 3
-7 12 -3 20 8 21 -4 18 -16 -4z m15 -29 c-3 -3 0 -12 6 -21 10 -13 10 -14 -2
-4 -16 15 -23 46 -8 37 5 -3 7 -9 4 -12z"/>
<path d="M5069 3943 c-1 -5 -1 -12 0 -17 1 -4 -3 -13 -8 -20 -7 -8 -5 -12 8
-13 13 -1 18 6 18 28 0 25 -15 43 -18 22z"/>
<path d="M5101 3924 c0 -11 3 -14 6 -6 3 7 2 16 -1 19 -3 4 -6 -2 -5 -13z"/>
<path d="M1430 3890 c0 -5 5 -10 11 -10 5 0 7 5 4 10 -3 6 -8 10 -11 10 -2 0
-4 -4 -4 -10z"/>
<path d="M4113 3875 c0 -8 4 -12 9 -9 4 3 8 9 8 15 0 5 -4 9 -8 9 -5 0 -9 -7
-9 -15z"/>
<path d="M4068 3860 c-14 -16 -15 -20 -3 -30 8 -7 20 -10 27 -7 8 3 6 6 -5 6
-11 1 -17 7 -14 14 2 6 9 11 15 10 6 -2 9 4 6 12 -4 8 -7 15 -8 14 0 0 -9 -9
-18 -19z"/>
<path d="M1430 3861 c0 -7 -5 -9 -12 -5 -7 4 -10 4 -6 -1 4 -4 2 -15 -5 -23
-10 -13 -9 -14 1 -8 7 4 21 2 30 -5 14 -11 15 -11 5 1 -19 21 -16 34 5 19 16
-13 16 -13 2 6 -8 11 -16 22 -17 24 -2 2 -3 -1 -3 -8z"/>
<path d="M2616 3844 c-4 -10 -12 -14 -23 -10 -15 6 -15 5 1 -13 11 -12 14 -21
7 -26 -14 -8 -14 -25 0 -25 5 0 8 4 5 9 -6 9 32 49 41 43 3 -2 7 -1 10 1 7 8
-20 3 -34 -6 -16 -10 -17 5 -1 21 6 6 9 14 6 17 -3 3 -8 -2 -12 -11z"/>
<path d="M2656 3787 c3 -10 9 -15 12 -12 3 3 0 11 -7 18 -10 9 -11 8 -5 -6z"/>
<path d="M2627 3718 c6 -11 31 -10 37 1 3 5 -5 8 -18 7 -13 0 -22 -4 -19 -8z"/>
<path d="M1455 3679 c-4 -6 -5 -12 -2 -15 2 -3 7 2 10 11 7 17 1 20 -8 4z"/>
<path d="M2690 3680 c0 -5 5 -10 11 -10 5 0 7 5 4 10 -3 6 -8 10 -11 10 -2 0
-4 -4 -4 -10z"/>
<path d="M5110 3681 c0 -6 4 -13 10 -16 6 -3 7 1 4 9 -7 18 -14 21 -14 7z"/>
<path d="M4036 3658 c-6 -18 -4 -49 2 -43 6 6 10 55 5 55 -2 0 -5 -6 -7 -12z"/>
<path d="M1420 3634 c7 -7 2 -15 -15 -22 -33 -15 -32 -28 3 -27 23 0 27 4 26
25 0 14 4 28 10 32 6 4 1 6 -11 5 -15 -1 -19 -5 -13 -13z"/>
<path d="M2640 3641 c0 -6 4 -13 10 -16 6 -3 7 1 4 9 -7 18 -14 21 -14 7z"/>
<path d="M2700 3646 c0 -2 8 -10 18 -17 15 -13 16 -12 3 4 -13 16 -21 21 -21
13z"/>
<path d="M1447 3599 c7 -7 15 -10 18 -7 3 3 -2 9 -12 12 -14 6 -15 5 -6 -5z"/>
<path d="M1946 3598 c3 -5 10 -6 15 -3 13 9 11 12 -6 12 -8 0 -12 -4 -9 -9z"/>
<path d="M2650 3598 c0 -4 5 -8 11 -8 5 0 8 -4 4 -9 -3 -6 3 -14 12 -20 14 -8
15 -10 3 -11 -12 0 -12 -2 -2 -9 8 -4 13 -11 13 -15 -2 -11 9 -7 26 10 16 16
16 16 -5 10 -17 -6 -21 -4 -16 8 4 11 0 16 -12 16 -18 1 -18 1 -1 14 23 18 22
22 -8 22 -14 0 -25 -4 -25 -8z"/>
<path d="M2713 3595 c0 -8 4 -12 9 -9 5 3 6 10 3 15 -9 13 -12 11 -12 -6z"/>
<path d="M1976 3583 c-6 -14 -5 -15 5 -6 7 7 10 15 7 18 -3 3 -9 -2 -12 -12z"/>
<path d="M1995 3529 c-4 -6 -5 -12 -2 -15 2 -3 7 2 10 11 7 17 1 20 -8 4z"/>
<path d="M2708 3503 c-9 -20 -1 -68 10 -65 7 1 12 -2 12 -8 0 -5 -6 -10 -12
-10 -10 0 -9 -3 1 -9 11 -7 11 -9 0 -13 -12 -4 -12 -7 0 -21 13 -17 36 -13 26
4 -4 5 0 9 7 9 10 0 10 2 -1 9 -16 10 -23 51 -9 51 4 0 8 5 8 11 0 8 -4 8 -14
0 -9 -7 -17 -8 -20 -3 -3 6 1 12 9 16 8 3 15 11 15 18 0 9 -3 8 -10 -2 -9 -13
-14 -7 -11 13 0 4 -1 7 -3 7 -3 0 -6 -3 -8 -7z m29 -118 c0 -8 -4 -12 -9 -9
-5 3 -6 10 -3 15 9 13 12 11 12 -6z"/>
<path d="M3995 3460 c3 -5 8 -10 11 -10 2 0 4 5 4 10 0 6 -5 10 -11 10 -5 0
-7 -4 -4 -10z"/>
<path d="M1398 3453 c-10 -3 -18 -8 -18 -13 0 -12 39 -19 46 -8 9 14 -8 25
-28 21z"/>
<path d="M5132 3440 c0 -14 2 -19 5 -12 2 6 2 18 0 25 -3 6 -5 1 -5 -13z"/>
<path d="M3890 3440 c0 -5 5 -10 10 -10 6 0 10 5 10 10 0 6 -4 10 -10 10 -5 0
-10 -4 -10 -10z"/>
<path d="M5115 3400 c-3 -5 -1 -10 4 -10 6 0 11 5 11 10 0 6 -2 10 -4 10 -3 0
-8 -4 -11 -10z"/>
<path d="M5140 3400 c0 -6 7 -10 15 -10 8 0 15 2 15 4 0 2 -7 6 -15 10 -8 3
-15 1 -15 -4z"/>
<path d="M4515 3360 c-3 -5 -1 -10 4 -10 6 0 11 5 11 10 0 6 -2 10 -4 10 -3 0
-8 -4 -11 -10z"/>
<path d="M5160 3355 c-10 -12 -10 -18 -2 -26 7 -5 10 -6 7 -3 -2 4 0 15 6 25
12 23 6 25 -11 4z"/>
<path d="M5211 3345 c1 -19 18 -51 18 -35 0 8 -4 22 -9 30 -5 8 -9 11 -9 5z"/>
<path d="M3910 3311 c0 -5 7 -12 16 -15 14 -5 15 -4 4 9 -14 17 -20 19 -20 6z"/>
<path d="M1360 3285 c-13 -15 -3 -25 18 -18 8 4 13 2 9 -3 -3 -6 5 -10 18 -10
24 0 25 11 2 11 -7 0 -11 7 -11 16 1 18 -22 21 -36 4z"/>
<path d="M3890 3281 c0 -5 8 -15 18 -22 15 -12 16 -12 5 2 -7 9 -10 19 -6 22
3 4 1 7 -5 7 -7 0 -12 -4 -12 -9z"/>
<path d="M4580 3280 c0 -5 5 -10 11 -10 5 0 7 5 4 10 -3 6 -8 10 -11 10 -2 0
-4 -4 -4 -10z"/>
<path d="M1324 3238 c-3 -4 -3 -8 1 -8 5 0 -49 -49 -83 -75 -33 -25 -96 -91
-94 -97 3 -11 -6 -10 -29 2 -18 10 -20 3 -10 -38 1 -1 10 2 20 8 16 8 22 6 31
-7 8 -13 10 -13 7 -3 -6 18 27 62 38 52 5 -4 5 -2 1 5 -3 6 -2 14 4 18 6 4 8
10 5 15 -3 4 1 13 8 19 10 8 14 7 14 -4 0 -8 -3 -12 -7 -10 -3 2 -6 -5 -6 -15
0 -13 4 -16 12 -10 6 6 14 6 19 2 4 -4 3 3 -3 14 -11 21 -7 34 9 34 5 0 6 -8
2 -17 -3 -10 -3 -15 1 -11 4 3 8 12 10 20 4 29 17 40 32 27 12 -10 14 -10 12
1 -2 7 2 14 9 17 8 3 11 -3 8 -16 -2 -11 0 -23 4 -25 18 -11 4 45 -14 59 -16
11 -17 14 -4 15 8 0 20 -4 27 -10 9 -7 9 -7 2 2 -13 16 -13 29 1 26 6 -2 13 2
16 9 5 13 -35 14 -43 1z m-13 -52 c-1 -3 -3 -5 -5 -3 -2 1 -14 -7 -27 -18
l-24 -20 24 28 c22 24 34 29 32 13z m-122 -103 c-13 -16 -27 -32 -32 -38 -5
-6 -7 -4 -5 4 3 13 47 60 57 61 3 0 -6 -12 -20 -27z"/>
<path d="M3916 3227 c3 -10 9 -15 12 -12 3 3 0 11 -7 18 -10 9 -11 8 -5 -6z"/>
<path d="M1376 3222 c-2 -4 4 -8 14 -8 10 0 16 4 14 8 -3 4 -9 8 -14 8 -5 0
-11 -4 -14 -8z"/>
<path d="M5387 3216 c-4 -10 -1 -13 9 -9 7 3 14 9 14 14 0 14 -17 10 -23 -5z"/>
<path d="M3886 3203 c-6 -14 -5 -15 5 -6 7 7 10 15 7 18 -3 3 -9 -2 -12 -12z"/>
<path d="M5420 3206 c0 -2 7 -7 16 -10 8 -3 12 -2 9 4 -6 10 -25 14 -25 6z"/>
<path d="M4620 3196 c0 -2 7 -7 16 -10 8 -3 12 -2 9 4 -6 10 -25 14 -25 6z"/>
<path d="M4670 3183 c0 -6 8 -17 18 -24 16 -13 16 -13 2 6 -8 11 -16 22 -17
24 -2 2 -3 0 -3 -6z"/>
<path d="M4640 3160 c-12 -7 -10 -9 7 -7 12 0 19 5 17 9 -6 10 -6 10 -24 -2z"/>
<path d="M5447 3140 c-9 -11 -14 -20 -10 -20 3 0 -2 -9 -11 -19 -15 -16 -16
-23 -5 -43 7 -13 12 -25 11 -28 0 -3 8 -4 19 -3 14 2 18 -1 13 -10 -4 -6 -3
-8 1 -4 11 9 16 37 7 36 -4 -1 -16 -1 -27 0 -16 1 -17 3 -5 10 8 6 17 8 20 6
4 -2 7 2 7 10 0 8 -6 17 -14 19 -11 5 -11 11 2 36 18 35 16 38 -8 10z m0 -66
c-9 -9 -28 6 -21 18 4 6 10 6 17 -1 6 -6 8 -13 4 -17z"/>
<path d="M1290 3140 c0 -5 5 -10 11 -10 5 0 7 5 4 10 -3 6 -8 10 -11 10 -2 0
-4 -4 -4 -10z"/>
<path d="M4678 3133 c7 -3 16 -2 19 1 4 3 -2 6 -13 5 -11 0 -14 -3 -6 -6z"/>
<path d="M4710 3119 c0 -4 6 -9 13 -12 8 -3 14 0 14 7 0 7 -6 13 -14 13 -7 0
-13 -4 -13 -8z"/>
<path d="M4753 3105 c0 -14 3 -28 8 -31 5 -3 6 3 3 13 -5 17 -5 17 9 1 8 -10
19 -18 25 -18 6 0 12 -6 15 -12 3 -9 10 -8 23 6 11 10 14 16 8 13 -7 -4 -17 0
-24 9 -7 8 -19 13 -26 10 -8 -3 -20 4 -27 15 -14 19 -14 19 -14 -6z m68 -32
c13 -17 13 -17 -6 -3 -11 8 -22 16 -24 17 -2 2 0 3 6 3 6 0 17 -8 24 -17z"/>
<path d="M5490 3101 c0 -6 4 -13 10 -16 6 -3 7 1 4 9 -7 18 -14 21 -14 7z"/>
<path d="M4690 3079 c0 -5 5 -7 10 -4 6 3 10 8 10 11 0 2 -4 4 -10 4 -5 0 -10
-5 -10 -11z"/>
<path d="M4733 3071 c0 -11 5 -18 9 -15 4 3 5 11 1 19 -7 21 -12 19 -10 -4z"/>
<path d="M1215 3059 c-4 -6 -5 -12 -2 -15 2 -3 7 2 10 11 7 17 1 20 -8 4z"/>
<path d="M2865 3038 c9 -22 33 -30 41 -15 4 7 3 9 -1 4 -5 -4 -17 1 -27 10
-17 15 -18 15 -13 1z"/>
<path d="M3837 3043 c-10 -9 -9 -23 1 -23 5 0 9 7 9 15 0 17 -1 18 -10 8z"/>
<path d="M1122 3011 c-11 -7 -10 -10 3 -15 23 -9 25 -8 25 9 0 17 -9 19 -28 6z"/>
<path d="M1175 3000 c-4 -6 -1 -9 7 -8 7 2 12 -3 10 -10 -1 -8 2 -11 8 -7 8 5
7 11 -1 21 -14 17 -16 17 -24 4z"/>
<path d="M5425 3001 c-3 -5 -1 -12 4 -15 12 -8 9 -30 -7 -49 -10 -11 -9 -17 5
-28 13 -11 17 -11 20 -1 3 6 10 9 16 5 7 -3 4 3 -6 14 -17 20 -17 21 0 27 17
7 17 8 1 17 -10 5 -15 16 -12 24 7 16 -11 21 -21 6z m19 -82 c-3 -5 -10 -7
-15 -3 -5 3 -7 10 -3 15 3 5 10 7 15 3 5 -3 7 -10 3 -15z"/>
<path d="M5477 2996 c-17 -13 -17 -14 0 -20 10 -4 14 -4 10 0 -4 4 -2 13 4 21
14 17 9 16 -14 -1z"/>
<path d="M3819 2983 c0 -5 -2 -16 -4 -26 -2 -11 -1 -16 3 -13 8 8 14 46 7 46
-3 0 -5 -3 -6 -7z"/>
<path d="M1158 2973 c7 -3 16 -2 19 1 4 3 -2 6 -13 5 -11 0 -14 -3 -6 -6z"/>
<path d="M1266 2962 c-3 -5 1 -9 9 -9 8 0 12 4 9 9 -3 4 -7 8 -9 8 -2 0 -6 -4
-9 -8z"/>
<path d="M5495 2940 c-3 -5 -1 -10 4 -10 6 0 11 5 11 10 0 6 -2 10 -4 10 -3 0
-8 -4 -11 -10z"/>
<path d="M5470 2900 c-9 -6 -10 -10 -3 -10 6 0 15 5 18 10 8 12 4 12 -15 0z"/>
<path d="M5470 2849 c0 -5 -6 -7 -12 -3 -7 4 -9 3 -5 -1 13 -15 36 -14 30 1
-6 17 -13 18 -13 3z"/>
<path d="M566 2829 c3 -5 9 -7 14 -4 5 3 11 1 15 -5 3 -5 0 -10 -7 -10 -8 0
-7 -4 4 -11 10 -5 21 -9 24 -9 4 1 10 -4 15 -11 6 -10 11 -10 23 0 10 8 16 9
16 3 0 -6 -4 -14 -10 -17 -5 -3 -10 -12 -9 -18 0 -9 2 -9 6 0 3 9 11 9 31 -3
l27 -16 -25 20 c-25 21 -25 21 -2 19 12 -1 22 -5 22 -10 0 -4 5 -5 11 -1 11 6
-14 28 -34 29 -4 0 -12 7 -17 15 -7 12 -12 12 -22 2 -9 -9 -17 -7 -35 10 -23
22 -58 34 -47 17z"/>
<path d="M1321 2816 c-8 -10 -8 -16 1 -23 15 -12 49 -13 42 -2 -2 5 -11 6 -19
3 -10 -4 -13 0 -10 15 5 25 2 26 -14 7z"/>
<path d="M3766 2822 c-3 -5 1 -9 9 -9 8 0 12 4 9 9 -3 4 -7 8 -9 8 -2 0 -6 -4
-9 -8z"/>
<path d="M550 2799 c0 -5 5 -7 10 -4 6 3 10 8 10 11 0 2 -4 4 -10 4 -5 0 -10
-5 -10 -11z"/>
<path d="M570 2779 c0 -5 5 -7 10 -4 6 3 10 8 10 11 0 2 -4 4 -10 4 -5 0 -10
-5 -10 -11z"/>
<path d="M590 2762 c0 -4 9 -8 19 -8 11 0 17 4 15 8 -3 4 -12 8 -20 8 -8 0
-14 -4 -14 -8z"/>
<path d="M2955 2760 c3 -5 0 -10 -7 -12 -8 -3 -6 -7 5 -11 10 -4 16 -2 14 6
-1 7 5 11 13 9 8 -2 11 0 7 4 -11 11 -38 14 -32 4z"/>
<path d="M5192 2756 c4 -5 3 -15 -2 -21 -7 -9 -6 -14 4 -18 21 -8 28 19 8 34
-9 8 -14 9 -10 5z"/>
<path d="M745 2732 c11 -11 22 -15 23 -10 2 4 9 5 15 2 8 -5 8 -2 0 6 -7 8
-23 15 -35 17 -22 3 -22 3 -3 -15z"/>
<path d="M715 2721 c-3 -5 -2 -12 3 -15 5 -3 9 1 9 9 0 17 -3 19 -12 6z"/>
<path d="M1400 2719 c0 -4 6 -9 13 -12 8 -3 14 0 14 7 0 7 -6 13 -14 13 -7 0
-13 -4 -13 -8z"/>
<path d="M2927 2717 c-6 -15 27 -17 40 -2 5 4 2 5 -4 1 -7 -4 -13 -2 -13 3 0
15 -17 14 -23 -2z"/>
<path d="M5235 2721 c3 -2 -3 -10 -13 -18 -15 -12 -14 -13 8 -1 14 7 28 11 33
10 4 -1 7 2 7 7 0 6 -9 9 -20 8 -10 -1 -17 -3 -15 -6z"/>
<path d="M5307 2719 c7 -7 15 -10 18 -7 3 3 -2 9 -12 12 -14 6 -15 5 -6 -5z"/>
<path d="M775 2700 c-3 -5 -2 -10 4 -10 5 0 13 5 16 10 3 6 2 10 -4 10 -5 0
-13 -4 -16 -10z"/>
<path d="M2975 2700 c-3 -5 -1 -10 4 -10 6 0 11 5 11 10 0 6 -2 10 -4 10 -3 0
-8 -4 -11 -10z"/>
<path d="M1375 2681 c-3 -5 -1 -12 5 -16 5 -3 10 1 10 9 0 18 -6 21 -15 7z"/>
<path d="M2996 2674 c-8 -20 -8 -24 2 -24 4 0 8 9 9 20 2 24 -3 26 -11 4z"/>
<path d="M1435 2670 c-3 -5 -2 -18 4 -27 7 -14 9 -12 8 10 -2 30 -3 31 -12 17z"/>
<path d="M3715 2670 c-4 -6 -11 -7 -17 -4 -7 4 -8 2 -4 -5 6 -9 11 -9 22 0 14
11 18 19 10 19 -3 0 -8 -5 -11 -10z"/>
<path d="M5188 2663 c7 -3 16 -2 19 1 4 3 -2 6 -13 5 -11 0 -14 -3 -6 -6z"/>
<path d="M790 2620 c0 -5 5 -10 11 -10 5 0 7 5 4 10 -3 6 -8 10 -11 10 -2 0
-4 -4 -4 -10z"/>
<path d="M3696 2613 c-6 -14 -5 -15 5 -6 7 7 10 15 7 18 -3 3 -9 -2 -12 -12z"/>
<path d="M5150 2621 c0 -6 4 -13 10 -16 6 -3 7 1 4 9 -7 18 -14 21 -14 7z"/>
<path d="M5085 2601 c-3 -5 -1 -12 4 -15 5 -3 11 1 15 9 6 16 -9 21 -19 6z"/>
<path d="M3670 2580 c-13 -8 -12 -10 3 -10 9 0 17 5 17 10 0 12 -1 12 -20 0z"/>
<path d="M1395 2520 c-4 -6 -11 -7 -17 -4 -7 4 -8 2 -4 -4 10 -17 33 -15 33 3
0 18 -3 19 -12 5z"/>
<path d="M1456 2513 c-6 -14 -5 -15 5 -6 7 7 10 15 7 18 -3 3 -9 -2 -12 -12z"/>
<path d="M5110 2521 c0 -6 4 -13 10 -16 6 -3 7 1 4 9 -7 18 -14 21 -14 7z"/>
<path d="M3591 2486 c-9 -11 -9 -16 0 -21 6 -4 15 -1 20 6 8 13 13 5 10 -14
-1 -5 3 -5 9 -2 6 4 9 10 6 13 -3 3 0 12 7 21 10 14 10 14 -4 4 -10 -9 -19 -9
-26 -2 -7 7 -14 5 -22 -5z"/>
<path d="M1444 2482 c4 -3 14 -7 22 -8 9 -1 13 0 10 4 -4 3 -14 7 -22 8 -9 1
-13 0 -10 -4z"/>
<path d="M3575 2411 c4 -8 -3 -24 -20 -41 -15 -16 -22 -30 -17 -34 6 -4 14 -2
17 4 5 8 11 7 21 -1 12 -10 15 -10 12 2 -2 8 3 13 10 12 17 -4 15 14 -3 21 -8
3 -12 12 -9 20 3 8 0 17 -7 22 -8 5 -10 3 -4 -5z m6 -45 c-1 -3 -4 -6 -8 -7
-5 0 -15 -6 -23 -12 -8 -6 -6 -2 4 11 17 20 29 23 27 8z"/>
<path d="M3610 2399 c0 -5 5 -7 10 -4 6 3 10 8 10 11 0 2 -4 4 -10 4 -5 0 -10
-5 -10 -11z"/>
<path d="M5057 2376 c-15 -12 -16 -15 -2 -26 13 -10 13 -15 3 -21 -7 -4 -9
-11 -6 -14 12 -13 29 7 23 26 -5 14 -3 17 9 13 9 -3 13 -11 9 -18 -3 -6 -2 -8
2 -3 5 4 10 18 11 30 2 12 0 16 -2 10 -8 -18 -25 -16 -18 2 7 18 -5 19 -29 1z"/>
<path d="M1395 2340 c3 -5 8 -10 11 -10 2 0 4 5 4 10 0 6 -5 10 -11 10 -5 0
-7 -4 -4 -10z"/>
<path d="M5079 2310 c-10 -6 -15 -20 -14 -35 2 -14 -2 -25 -8 -25 -6 0 -2 -7
9 -15 10 -8 15 -15 9 -15 -5 0 -3 -5 5 -10 12 -8 13 -11 1 -19 -9 -6 -10 -11
-2 -15 6 -4 11 -2 11 4 0 6 4 9 8 6 4 -2 8 4 8 14 0 10 -3 17 -7 14 -12 -7
-18 23 -6 35 17 17 17 41 1 34 -10 -4 -12 0 -8 11 3 9 11 13 17 9 6 -3 7 -1 3
5 -8 14 -7 14 -27 2z m21 -44 c0 -2 -6 -9 -13 -15 -10 -8 -14 -7 -14 4 0 8 6
15 14 15 7 0 13 -2 13 -4z"/>
<path d="M3521 2291 c-9 -6 -10 -11 -2 -15 7 -5 8 -13 2 -24 -6 -12 -3 -24 10
-41 l20 -24 -5 26 c-3 18 1 30 12 37 9 5 12 10 7 10 -6 0 -16 -5 -23 -12 -7
-7 -12 -8 -12 -2 0 6 5 15 12 22 15 15 -2 34 -21 23z"/>
<path d="M3565 2280 c3 -5 8 -10 11 -10 2 0 4 5 4 10 0 6 -5 10 -11 10 -5 0
-7 -4 -4 -10z"/>
<path d="M1414 2248 c-4 -5 -3 -12 0 -15 3 -4 6 0 6 7 0 10 4 8 13 -4 12 -16
13 -16 13 2 0 19 -22 26 -32 10z"/>
<path d="M5110 2241 c0 -6 4 -13 10 -16 6 -3 7 1 4 9 -7 18 -14 21 -14 7z"/>
<path d="M1415 2209 c-4 -5 -11 -6 -18 -2 -6 3 -2 -7 10 -23 11 -16 18 -34 16
-41 -2 -6 1 -14 6 -18 7 -4 8 1 4 12 -6 15 -4 16 9 5 11 -9 18 -10 23 -2 4 6
1 9 -7 8 -8 -2 -13 6 -12 19 1 13 -3 20 -7 17 -5 -3 -9 -1 -9 5 0 5 5 11 12
13 8 3 6 7 -5 11 -9 3 -19 2 -22 -4z"/>
<path d="M3481 2197 c-16 -16 -14 -32 3 -18 7 6 21 8 31 5 12 -5 16 -3 13 6
-5 17 -33 21 -47 7z"/>
<path d="M3549 2163 c-13 -16 -12 -17 4 -4 16 13 21 21 13 21 -2 0 -10 -8 -17
-17z"/>
<path d="M5115 2129 c-4 -6 -5 -12 -2 -15 2 -3 7 2 10 11 7 17 1 20 -8 4z"/>
<path d="M1393 2075 c0 -8 4 -12 9 -9 12 8 10 -10 -4 -24 -9 -9 -9 -12 1 -12
7 0 9 -4 6 -10 -3 -6 1 -7 10 -3 12 4 13 8 5 13 -9 6 -9 13 0 30 8 15 8 20 1
16 -6 -4 -11 -2 -11 3 0 6 -4 11 -8 11 -5 0 -9 -7 -9 -15z"/>
<path d="M5113 2065 c0 -8 4 -12 9 -9 5 3 6 10 3 15 -9 13 -12 11 -12 -6z"/>
<path d="M1430 2049 c0 -5 5 -7 10 -4 6 3 10 8 10 11 0 2 -4 4 -10 4 -5 0 -10
-5 -10 -11z"/>
<path d="M5110 2020 c0 -5 5 -10 11 -10 5 0 7 5 4 10 -3 6 -8 10 -11 10 -2 0
-4 -4 -4 -10z"/>
<path d="M3479 2003 c0 -5 -2 -16 -4 -26 -2 -11 -1 -16 3 -13 8 8 14 46 7 46
-3 0 -5 -3 -6 -7z"/>
<path d="M5134 1960 c0 -13 4 -16 10 -10 7 7 7 13 0 20 -6 6 -10 3 -10 -10z"/>
<path d="M1420 1966 c0 -2 7 -7 16 -10 8 -3 12 -2 9 4 -6 10 -25 14 -25 6z"/>
<path d="M1403 1943 c-9 -3 -7 -11 7 -26 11 -11 23 -17 27 -14 3 4 1 7 -6 7
-7 0 -9 5 -6 10 3 6 0 10 -7 10 -9 0 -9 3 2 10 15 10 4 12 -17 3z"/>
<path d="M1387 1902 c-2 -4 -2 -17 -1 -29 0 -13 -3 -23 -7 -23 -5 0 -9 -4 -9
-10 0 -5 3 -9 8 -9 19 3 33 -2 27 -10 -3 -5 -1 -12 4 -16 14 -8 5 34 -11 52
-11 14 -10 15 12 9 17 -5 21 -4 11 2 -9 6 -10 11 -2 13 6 2 3 9 -8 16 -11 7
-22 9 -24 5z"/>
<path d="M5070 1880 c0 -4 7 -11 16 -14 22 -9 26 -8 22 6 -5 13 -38 20 -38 8z"/>
<path d="M3360 1862 c0 -4 6 -16 13 -25 11 -16 14 -16 32 -2 11 8 16 14 10 13
-5 -1 -20 3 -32 10 -13 7 -23 9 -23 4z"/>
<path d="M1430 1850 c-9 -6 -10 -10 -3 -10 6 0 15 5 18 10 8 12 4 12 -15 0z"/>
<path d="M3430 1820 c0 -5 5 -10 11 -10 5 0 7 5 4 10 -3 6 -8 10 -11 10 -2 0
-4 -4 -4 -10z"/>
<path d="M5070 1810 c-16 -10 -15 -12 23 -28 26 -11 27 -11 17 8 -14 26 -23
30 -40 20z"/>
<path d="M1466 1678 c3 -4 9 -8 15 -8 5 0 9 4 9 8 0 5 -7 9 -15 9 -8 0 -12 -4
-9 -9z"/>
<path d="M2753 1644 c4 -7 0 -17 -8 -24 -19 -16 -19 -34 -1 -27 17 7 39 -16
28 -28 -4 -5 -1 -5 6 -1 10 6 10 11 2 21 -8 9 -8 15 0 20 5 3 10 2 10 -3 0 -5
7 -9 16 -9 15 0 14 2 -1 13 -10 8 -22 11 -28 7 -6 -3 -7 -1 -3 5 4 6 14 8 23
5 11 -4 14 -3 9 6 -5 7 -14 10 -21 7 -7 -2 -18 1 -25 7 -9 8 -11 9 -7 1z m14
-27 c0 -8 -6 -14 -14 -14 -9 0 -10 4 -2 14 6 7 12 13 14 13 1 0 2 -6 2 -13z"/>
<path d="M2857 1633 c-13 -16 -14 -20 -1 -37 8 -11 14 -15 14 -10 0 6 -6 16
-12 23 -11 11 -8 12 12 6 26 -8 42 -24 35 -35 -2 -4 3 -7 11 -7 10 0 11 4 4
11 -16 16 -12 30 5 16 18 -15 34 -6 31 17 -4 23 -21 27 -39 8 -14 -14 -17 -13
-30 5 -13 19 -15 19 -30 3z m78 -13 c-3 -5 -1 -10 6 -10 7 0 10 -3 6 -6 -9 -9
-28 6 -22 17 4 5 8 9 11 9 3 0 2 -4 -1 -10z"/>
<path d="M3310 1645 c0 -5 5 -17 10 -25 5 -8 10 -10 10 -5 0 6 -5 17 -10 25
-5 8 -10 11 -10 5z"/>
<path d="M3345 1640 c-3 -6 1 -7 9 -4 18 7 21 14 7 14 -6 0 -13 -4 -16 -10z"/>
<path d="M5074 1635 c24 -18 39 -19 34 -3 -2 6 -15 13 -29 14 -23 4 -23 3 -5
-11z"/>
<path d="M3117 1615 c-4 -9 -3 -13 3 -10 6 3 10 1 10 -4 0 -6 -4 -11 -10 -11
-5 0 -10 -4 -10 -10 0 -18 18 -10 25 10 4 11 10 18 15 15 5 -3 11 -1 14 4 4 5
2 12 -3 15 -5 4 -13 1 -17 -5 -5 -8 -8 -8 -14 1 -5 8 -9 7 -13 -5z"/>
<path d="M1420 1616 c0 -2 7 -7 16 -10 8 -3 12 -2 9 4 -6 10 -25 14 -25 6z"/>
<path d="M2690 1611 c0 -6 4 -13 10 -16 6 -3 7 1 4 9 -7 18 -14 21 -14 7z"/>
<path d="M2871 1567 c-13 -21 -12 -21 5 -5 10 10 16 20 13 22 -3 3 -11 -5 -18
-17z"/>
<path d="M3146 1582 c-3 -5 1 -9 9 -9 8 0 12 4 9 9 -3 4 -7 8 -9 8 -2 0 -6 -4
-9 -8z"/>
<path d="M2990 1565 c0 -8 2 -15 4 -15 2 0 6 7 10 15 3 8 1 15 -4 15 -6 0 -10
-7 -10 -15z"/>
<path d="M3180 1576 c0 -2 7 -7 16 -10 8 -3 12 -2 9 4 -6 10 -25 14 -25 6z"/>
<path d="M1455 1540 c-3 -5 -1 -10 4 -10 6 0 11 5 11 10 0 6 -2 10 -4 10 -3 0
-8 -4 -11 -10z"/>
<path d="M1480 1476 c0 -2 7 -7 16 -10 8 -3 12 -2 9 4 -6 10 -25 14 -25 6z"/>
<path d="M5080 1396 c0 -2 7 -7 16 -10 8 -3 12 -2 9 4 -6 10 -25 14 -25 6z"/>
<path d="M1775 1373 c2 -10 4 -19 5 -20 3 -3 7 -19 9 -32 2 -13 34 -7 39 7 2
7 7 10 11 8 4 -3 7 4 8 14 2 18 1 18 -18 -1 -10 -10 -25 -19 -31 -18 -9 0 -7
4 3 11 14 10 14 13 -3 30 -23 23 -27 23 -23 1z"/>
<path d="M1806 1378 c3 -4 9 -8 15 -8 5 0 9 4 9 8 0 5 -7 9 -15 9 -8 0 -12 -4
-9 -9z"/>
<path d="M876 1313 c-6 -14 -5 -15 5 -6 7 7 10 15 7 18 -3 3 -9 -2 -12 -12z"/>
<path d="M1873 1275 c0 -8 4 -12 9 -9 5 3 6 10 3 15 -9 13 -12 11 -12 -6z"/>
<path d="M953 1225 c0 -8 4 -12 9 -9 5 3 6 10 3 15 -9 13 -12 11 -12 -6z"/>
<path d="M1830 1198 c0 -5 -4 -6 -10 -3 -5 3 -7 0 -4 -8 3 -8 0 -18 -5 -22 -6
-3 -9 -11 -5 -16 3 -5 10 -6 16 -3 8 5 9 1 5 -10 -6 -14 -4 -15 16 -5 31 17
35 21 12 17 -25 -4 -33 29 -10 46 16 11 16 13 1 13 -9 0 -16 -4 -16 -9z"/>
<path d="M5010 1171 c0 -6 4 -13 10 -16 6 -3 7 1 4 9 -7 18 -14 21 -14 7z"/>
<path d="M998 1163 c7 -3 16 -2 19 1 4 3 -2 6 -13 5 -11 0 -14 -3 -6 -6z"/>
<path d="M4940 1116 c0 -2 7 -7 16 -10 8 -3 12 -2 9 4 -6 10 -25 14 -25 6z"/>
<path d="M1026 1102 c-2 -4 4 -8 14 -8 10 0 16 4 14 8 -3 4 -9 8 -14 8 -5 0
-11 -4 -14 -8z"/>
<path d="M1823 1098 c-14 -23 -11 -34 11 -47 17 -11 19 -11 9 0 -15 16 -17 53
-3 44 6 -4 8 -10 5 -15 -3 -5 -1 -11 4 -14 5 -4 8 2 6 11 -2 10 -4 21 -4 26
-1 11 -19 8 -28 -5z"/>
<path d="M4903 1095 c-3 -9 -3 -19 1 -22 3 -4 6 1 6 11 0 9 5 14 10 11 6 -3
10 -1 10 4 0 17 -20 13 -27 -4z"/>
<path d="M4826 1071 c-15 -28 -15 -28 12 -23 19 4 22 7 10 10 -14 3 -16 7 -8
23 6 10 8 19 6 19 -3 0 -12 -13 -20 -29z"/>
<path d="M1137 1076 c-4 -10 -3 -15 3 -11 6 3 10 1 10 -6 0 -7 3 -10 6 -6 3 3
2 13 -4 22 -8 16 -9 16 -15 1z"/>
<path d="M4748 1068 c9 -11 10 -18 2 -23 -7 -4 -7 -12 0 -26 6 -11 8 -25 4
-31 -4 -7 -3 -8 5 -4 7 5 9 16 5 29 -6 19 -5 20 10 8 10 -9 16 -10 16 -2 0 6
-4 11 -9 11 -5 0 -11 10 -13 22 -2 12 -10 24 -18 26 -13 4 -13 3 -2 -10z"/>
<path d="M1119 1033 c-12 -16 -12 -17 2 -6 9 7 20 9 24 5 5 -4 5 -1 1 6 -9 16
-11 15 -27 -5z"/>
<path d="M1156 1007 c3 -10 9 -15 12 -12 3 3 0 11 -7 18 -10 9 -11 8 -5 -6z"/>
<path d="M1195 1011 c-3 -5 -2 -12 3 -15 5 -3 9 1 9 9 0 17 -3 19 -12 6z"/>
<path d="M1785 960 c3 -5 8 -10 11 -10 2 0 4 5 4 10 0 6 -5 10 -11 10 -5 0 -7
-4 -4 -10z"/>
<path d="M4250 962 c0 -4 10 -9 22 -9 18 -2 20 0 8 7 -18 12 -30 13 -30 2z"/>
<path d="M4307 963 c-3 -5 5 -8 18 -8 13 0 21 3 18 8 -2 4 -10 7 -18 7 -8 0
-16 -3 -18 -7z"/>
<path d="M4430 966 c0 -2 7 -7 16 -10 8 -3 12 -2 9 4 -6 10 -25 14 -25 6z"/>
<path d="M4630 959 c0 -5 5 -7 10 -4 6 3 10 8 10 11 0 2 -4 4 -10 4 -5 0 -10
-5 -10 -11z"/>
<path d="M1755 920 c3 -5 8 -10 11 -10 2 0 4 5 4 10 0 6 -5 10 -11 10 -5 0 -7
-4 -4 -10z"/>
</g>
</svg>
